<svg width="886" height="713" viewBox="0 0 886 713" fill="none" xmlns="http://www.w3.org/2000/svg">
<ellipse cx="518.24" cy="319.427" rx="303.24" ry="300.427" fill="#3EF471"/>
<ellipse cx="395.009" cy="610.015" rx="137.426" ry="102.985" fill="#3EF471"/>
<ellipse cx="392.428" cy="123.953" rx="159.363" ry="98.3932" fill="#3EF471"/>
<ellipse cx="821.481" cy="272.198" rx="64.5192" ry="65.5955" fill="#3EF471"/>
<path d="M232.71 538.198C259.35 520.25 266.394 485.464 266.394 453.97C266.394 448.719 267.134 443.208 264.881 438.512C262.628 433.815 257.108 430.476 252.499 432.529C248.676 434.228 246.889 438.712 244.659 442.382C241.686 447.287 237.438 451.223 232.402 453.734C229.125 455.35 225.096 456.271 221.967 454.335C217.688 451.692 217.415 445.415 217.574 440.175C217.954 430.444 218.333 420.714 218.712 410.982C218.906 405.767 219.099 400.433 217.699 395.418C216.3 390.403 212.977 385.683 208.231 384.125C203.486 382.568 197.466 385.223 196.294 390.297C195.804 392.409 196.146 394.627 195.941 396.787C195.736 398.946 194.678 401.318 192.663 401.849C190.649 402.38 188.669 400.846 187.212 399.265C182.194 393.801 178.882 386.887 175.832 380.019C172.782 373.151 169.778 366.119 165.249 360.207C160.72 354.295 154.347 349.492 147.155 348.82C139.963 348.147 132.11 352.49 130.085 359.77C128.059 367.051 131.917 374.685 136.23 380.798C142.612 389.863 150.219 397.925 158.819 404.74C160.367 405.92 162.051 407.277 162.597 409.236C163.576 412.776 160.321 416.103 156.907 417.13C153.106 418.31 149.044 417.744 145.106 418.086C141.169 418.428 136.844 420.08 135.24 423.88C132.964 429.142 137.118 434.889 141.237 438.7C149.486 446.339 158.941 452.45 169.186 456.766C172.839 458.3 176.697 459.669 179.599 462.477C182.501 465.286 184.151 470.029 182.228 473.652C180.305 477.275 175.627 478.278 171.77 477.393C167.912 476.508 164.509 474.207 160.856 472.673C154.028 469.711 145.072 469.9 140.441 475.941C137.391 479.918 136.947 485.582 138.267 490.502C139.587 495.423 142.432 499.695 145.47 503.671C156.122 517.56 169.972 528.923 185.835 535.26C201.699 541.596 216.561 543.685 232.687 538.198" fill="#EBEBEB"/>
<path d="M229.614 539.26C228.92 526.764 229.501 534.269 225.529 518.244C221.049 500.931 215.616 483.9 209.256 467.233C207.594 462.796 205.952 458.415 204.328 454.088C202.701 449.781 201.096 445.509 199.264 441.426C195.745 433.598 191.81 425.979 187.474 418.605C183.389 411.525 179.258 404.976 175.355 398.875C171.451 392.775 167.684 387.182 164.054 382.214C158.356 374.357 152.066 366.983 145.243 360.16C142.842 357.741 140.907 355.935 139.553 354.72L138.04 353.363C137.874 353.196 137.696 353.046 137.505 352.914C137.643 353.107 137.804 353.281 137.983 353.434L139.428 354.873C140.702 356.124 142.591 357.977 144.959 360.431C151.667 367.341 157.863 374.764 163.497 382.639C167.081 387.606 170.803 393.259 174.683 399.324C178.564 405.389 182.649 412.009 186.712 419.065C191.01 426.425 194.916 434.024 198.41 441.827C200.22 445.887 201.824 450.087 203.44 454.442L208.357 467.587C214.704 484.219 220.148 501.205 224.664 518.468C228.67 534.434 228.158 526.858 228.932 539.307" fill="#E0E0E0"/>
<path d="M199.002 441.32C199.264 440.606 199.455 439.868 199.571 439.113C199.878 437.674 200.265 435.574 200.709 433.001C201.597 427.821 202.575 420.635 203.634 412.705C204.692 404.775 205.773 397.613 206.729 392.468C207.196 389.896 207.594 387.819 207.867 386.379C208.066 385.644 208.185 384.888 208.22 384.125C207.913 384.817 207.676 385.541 207.514 386.285C207.116 387.701 206.615 389.766 206.058 392.327C204.92 397.46 203.782 404.622 202.644 412.563C201.506 420.505 200.698 427.479 199.992 432.883C199.651 435.326 199.366 437.391 199.139 439.043C199.009 439.793 198.962 440.558 199.002 441.32Z" fill="#E0E0E0"/>
<path d="M134.66 426.499C135.502 426.723 136.363 426.861 137.232 426.912C138.893 427.125 141.283 427.42 144.242 427.88C150.148 428.753 158.273 430.24 167.161 432.317C176.049 434.393 184.015 436.635 189.739 438.429C192.607 439.302 194.905 440.069 196.499 440.6C197.31 440.922 198.148 441.168 199.002 441.332C198.243 440.888 197.442 440.525 196.612 440.246C195.053 439.609 192.777 438.736 189.932 437.768C184.242 435.809 176.276 433.461 167.366 431.373C159.758 429.562 152.067 428.156 144.321 427.16C141.351 426.794 138.939 426.605 137.266 426.499C136.399 426.422 135.527 426.422 134.66 426.499Z" fill="#E0E0E0"/>
<path d="M224.766 516.934C224.963 516.692 225.124 516.422 225.244 516.132L226.382 513.772C227.407 511.695 228.806 508.651 230.49 504.851C233.904 497.276 238.206 486.644 242.849 474.856C247.492 463.067 251.737 452.436 254.957 444.766C256.539 441.049 257.837 437.992 258.793 435.715C259.214 434.736 259.544 433.921 259.828 433.249C259.972 432.971 260.071 432.673 260.124 432.364C259.94 432.612 259.784 432.881 259.657 433.166L258.519 435.526C257.495 437.615 256.096 440.659 254.411 444.459C250.997 452.034 246.684 462.666 242.041 474.454C237.398 486.243 233.153 496.874 229.933 504.544C228.362 508.261 227.065 511.318 226.098 513.583L225.074 516.061C224.939 516.338 224.836 516.632 224.766 516.934Z" fill="#E0E0E0"/>
<path d="M139.667 485.157C139.93 485.323 140.213 485.454 140.509 485.546L142.978 486.502L152.082 489.924C159.787 492.815 170.37 496.933 182.057 501.5C193.744 506.067 204.373 510.09 212.123 512.816C216.004 514.173 219.156 515.247 221.341 515.943L223.867 516.722C224.154 516.841 224.458 516.912 224.766 516.934C224.504 516.763 224.22 516.629 223.924 516.533L221.455 515.577L212.351 512.167C204.658 509.276 194.075 505.158 182.387 500.591C170.7 496.025 160.071 492.001 152.31 489.275C148.441 487.906 145.288 486.844 143.104 486.148L140.577 485.358C140.285 485.244 139.979 485.176 139.667 485.157Z" fill="#E0E0E0"/>
<path d="M450.147 272.132C450.147 272.132 436.423 264.615 423.734 298.186C411.046 331.757 406.846 350.802 406.846 350.802C406.846 350.802 403.319 357.882 398.471 354C393.623 350.118 386.362 338.271 379.034 341.28C371.421 344.395 369.702 353.705 372.456 366.862C375.21 380.019 380.217 409.059 380.661 411.702C381.105 414.345 380.024 418.263 376.303 416.139C372.581 414.015 350.345 392.905 341.32 404.445C332.296 415.985 345.77 451.315 347.17 455.185C348.569 459.055 347.978 460.861 346.237 462.041C344.495 463.221 337.679 455.386 331.113 449.651C324.546 443.916 315.977 438.464 311.3 445.58C306.623 452.695 307.522 480.13 336.757 521.891L351.551 540.322L374.482 536.652C423.108 525.678 441.396 505.819 442.489 497.287C443.581 488.756 433.669 486.903 425.089 486.667C416.508 486.431 406.391 487.529 405.845 485.487C405.299 483.446 406.016 481.676 409.555 479.741C413.094 477.806 445.846 460.743 446.517 445.91C447.189 431.078 417.054 431.455 412.912 430.476C408.77 429.496 410.522 425.756 412.502 424.163C414.482 422.57 436.912 404.292 447.416 396.386C457.92 388.48 462.608 380.338 458.944 372.786C455.405 365.482 442.409 369.246 436.264 368.856C430.119 368.467 432.076 360.691 432.076 360.691C432.076 360.691 441.18 343.569 453.265 309.762C465.351 275.955 449.851 272.073 449.851 272.073" fill="#EBEBEB"/>
<path d="M352.086 535.13C361.065 510.35 373.708 476.201 387.876 438.523C402.044 400.846 414.744 366.756 423.848 342.011L434.591 312.7L437.527 304.735L438.301 302.67C438.483 302.198 438.585 301.974 438.585 301.974C438.585 301.974 438.585 302.222 438.369 302.694L437.652 304.782L434.853 312.806C432.417 319.768 428.821 329.81 424.326 342.2C415.347 366.98 402.704 401.141 388.547 438.795C374.391 476.449 361.668 510.574 352.564 535.319" fill="#E0E0E0"/>
<path d="M388.388 358C388.685 358.49 388.93 359.013 389.116 359.558C389.549 360.573 390.129 362.071 390.835 363.924C392.246 367.629 394.055 372.797 395.956 378.544C397.856 384.291 399.483 389.341 400.758 393.259L402.249 397.707C402.47 398.241 402.629 398.799 402.727 399.371C402.429 398.88 402.18 398.357 401.987 397.813C401.555 396.799 400.974 395.3 400.291 393.436C398.914 389.719 397.173 384.527 395.273 378.78L390.334 364.101L388.82 359.664C388.618 359.127 388.473 358.569 388.388 358Z" fill="#E0E0E0"/>
<path d="M404.889 399.572C404.809 399.383 414.926 395.04 427.478 389.884C440.031 384.727 450.238 380.68 450.329 380.869C450.421 381.057 440.292 385.412 427.74 390.568C415.188 395.725 404.957 399.772 404.889 399.572Z" fill="#E0E0E0"/>
<path d="M380.684 456.4C381.235 456.252 381.799 456.169 382.368 456.153L386.988 455.692C390.88 455.303 396.263 454.748 402.169 453.899C408.076 453.049 413.424 452.129 417.271 451.409L421.823 450.571C422.378 450.428 422.947 450.354 423.518 450.347C422.99 450.575 422.442 450.745 421.879 450.854C420.821 451.138 419.273 451.515 417.327 451.928C413.492 452.778 408.155 453.804 402.226 454.642C396.297 455.48 390.846 455.964 386.977 456.223C385.02 456.341 383.438 456.412 382.345 456.436C381.792 456.489 381.235 456.477 380.684 456.4Z" fill="#E0E0E0"/>
<path d="M357.776 422.204C358.162 422.576 358.505 422.991 358.8 423.443L361.383 426.983C363.534 429.992 366.47 434.193 369.679 438.854C372.889 443.515 375.768 447.763 377.816 450.855L380.206 454.536C380.526 454.975 380.796 455.449 381.014 455.952C380.622 455.583 380.274 455.167 379.978 454.713C379.284 453.746 378.419 452.554 377.395 451.173C375.244 448.152 372.308 443.963 369.099 439.302C365.89 434.641 363.022 430.393 360.974 427.302L358.572 423.62C358.249 423.186 357.981 422.71 357.776 422.204Z" fill="#E0E0E0"/>
<path d="M330.259 469.557C330.743 470.046 331.177 470.584 331.556 471.162L334.891 475.693C337.667 479.54 341.468 484.886 345.633 490.821C349.799 496.756 353.543 502.149 356.228 506.078L359.369 510.798C359.782 511.354 360.141 511.951 360.439 512.58C359.96 512.088 359.525 511.551 359.141 510.975L355.819 506.432C353.03 502.586 349.23 497.24 345.064 491.305C340.899 485.369 337.098 479.977 334.47 476.047L331.329 471.327C330.924 470.77 330.565 470.178 330.259 469.557Z" fill="#E0E0E0"/>
<path d="M359.995 511.294C360.691 511.096 361.404 510.97 362.123 510.916L367.961 510.114C372.888 509.441 379.682 508.486 387.159 507.199C394.636 505.913 401.373 504.603 406.243 503.6L412.024 502.42C412.723 502.242 413.435 502.124 414.152 502.066C413.484 502.351 412.791 502.564 412.081 502.704C410.738 503.069 408.781 503.553 406.391 504.12C401.532 505.3 394.795 506.668 387.307 507.943C379.819 509.217 373.002 510.102 368.052 510.645C365.582 510.905 363.58 511.105 362.191 511.2C361.463 511.293 360.729 511.325 359.995 511.294Z" fill="#E0E0E0"/>
<path d="M426.113 186.9C426.113 186.9 419.581 195.762 406.846 193.249C398.971 191.691 383.358 190.889 381.344 196.93L383.688 215.138C390.558 213.508 397.688 213.448 404.582 214.961C414.949 217.545 429.925 209.922 429.925 209.922L426.113 186.9Z" fill="#EBEBEB"/>
<path d="M404.9 212.4C403.69 212.293 402.516 211.916 401.458 211.297C400.4 210.677 399.482 209.828 398.769 208.808C398.055 207.789 397.563 206.622 397.322 205.386C397.082 204.151 397.102 202.876 397.378 201.65C398.516 197.237 404.889 195.196 409.145 196.411C410.16 196.697 411.11 197.186 411.941 197.854C412.772 198.522 413.467 199.354 413.986 200.302C414.506 201.25 414.84 202.295 414.967 203.377C415.096 204.459 415.016 205.556 414.733 206.606C413.561 210.972 409.304 212.778 404.9 212.4Z" fill="#F5F5F5"/>
<path d="M403.637 209.108C403.637 208.966 404.001 208.919 404.57 208.884C405.337 208.886 406.102 208.79 406.846 208.601C407.287 208.467 407.7 208.251 408.064 207.963C408.412 207.698 408.652 207.306 408.736 206.866C408.765 206.651 408.746 206.433 408.679 206.228C408.611 206.023 408.498 205.837 408.349 205.686C407.916 205.367 407.386 205.226 406.858 205.285H405.72C405.244 205.262 404.775 205.158 404.331 204.978C404.087 204.875 403.856 204.736 403.649 204.565C403.428 204.389 403.236 204.178 403.08 203.94C402.8 203.485 402.649 202.957 402.647 202.417C402.653 201.95 402.768 201.491 402.982 201.08C403.196 200.67 403.503 200.318 403.876 200.057C404.438 199.656 405.087 199.408 405.765 199.337C406.272 199.263 406.785 199.263 407.29 199.337C407.65 199.399 408.004 199.49 408.349 199.609C408.918 199.821 409.202 200.01 409.179 200.14C409.157 200.27 408.815 200.34 408.246 200.376C407.48 200.382 406.718 200.473 405.97 200.647C405.553 200.776 405.166 200.993 404.832 201.285C404.681 201.407 404.561 201.568 404.485 201.752C404.41 201.936 404.38 202.136 404.4 202.335C404.41 202.518 404.469 202.693 404.57 202.842C404.623 202.906 404.684 202.962 404.753 203.007C404.832 203.069 404.921 203.116 405.014 203.149C405.649 203.295 406.3 203.347 406.949 203.302C407.41 203.312 407.868 203.374 408.314 203.491C408.567 203.565 408.812 203.668 409.043 203.798C409.282 203.934 409.5 204.104 409.691 204.305C410.044 204.682 410.303 205.142 410.441 205.647C410.58 206.151 410.596 206.683 410.488 207.196C410.387 207.631 410.204 208.039 409.947 208.398C409.691 208.756 409.368 209.057 408.997 209.285C408.429 209.644 407.792 209.869 407.131 209.946C406.255 210.032 405.369 209.923 404.536 209.627C403.899 209.438 403.615 209.238 403.637 209.108Z" fill="#EBEBEB"/>
<path d="M408.053 211.22C407.791 211.22 407.245 208.305 406.824 204.636C406.403 200.966 406.277 197.969 406.539 197.933C406.801 197.898 407.347 200.848 407.768 204.518C408.189 208.187 408.314 211.126 408.053 211.22Z" fill="#EBEBEB"/>
<path d="M406.573 211.008C406.323 211.008 405.799 208.364 405.435 205.037C405.071 201.709 404.957 198.972 405.219 198.948C405.481 198.924 406.004 201.591 406.357 204.919C406.71 208.246 406.835 210.972 406.573 211.008Z" fill="#EBEBEB"/>
<g opacity="0.5">
<path d="M385.179 213.202L383.096 196.623L383.222 196.517C389.446 191.797 400.929 193.768 408.531 195.089C409.839 195.314 411.08 195.526 412.15 195.679C419.285 196.718 424.599 190.889 424.736 190.228H425.305L427.888 208.046L427.74 208.152C423.869 210.729 419.519 212.439 414.973 213.171C410.425 213.902 405.782 213.639 401.339 212.4C395.284 210.571 385.577 213.12 385.486 213.143L385.179 213.202ZM383.7 196.895L385.657 212.471C387.398 212.034 395.842 210.111 401.498 211.81C405.822 213.015 410.34 213.277 414.766 212.581C419.193 211.883 423.433 210.243 427.217 207.763L424.861 191.16C424.507 191.579 424.127 191.973 423.723 192.34C422.471 193.52 417.919 197.202 412.047 196.34C410.977 196.187 409.771 195.974 408.417 195.738C400.986 194.37 389.754 192.423 383.7 196.895Z" fill="#FAFAFA"/>
</g>
<path d="M336.404 86.3995C336.404 86.3995 326.162 89.9395 317.058 80.4995C311.368 74.5995 298.85 64.9589 293.911 68.7703L286.048 85.2903C292.625 87.9118 298.572 91.9913 303.47 97.2437C310.685 105.386 327.209 107.734 327.209 107.734L336.404 86.3995Z" fill="#EBEBEB"/>
<path d="M305.109 95.2141C304.16 94.4255 303.387 93.4339 302.841 92.3072C302.296 91.1804 301.991 89.9448 301.948 88.6848C301.904 87.4247 302.124 86.1699 302.591 85.0057C303.058 83.8416 303.762 82.7955 304.654 81.9391C308 78.9537 314.361 80.9361 317.24 84.4053C317.928 85.2301 318.451 86.1879 318.78 87.2235C319.109 88.259 319.237 89.3519 319.157 90.439C319.076 91.5261 318.789 92.5859 318.312 93.5574C317.834 94.5289 317.176 95.3926 316.375 96.0991C313.03 99.1199 308.523 98.1169 305.109 95.2141Z" fill="#F5F5F5"/>
<path d="M305.803 91.792C305.906 91.6858 306.213 91.792 306.691 92.146C307.32 92.5764 307.996 92.9288 308.705 93.1963C309.14 93.3512 309.601 93.4113 310.059 93.3732C310.488 93.3547 310.895 93.1693 311.197 92.8542C311.332 92.6946 311.43 92.5053 311.483 92.301C311.535 92.0965 311.543 91.8821 311.505 91.6742C311.436 91.3084 311.084 90.9072 310.48 90.4942C310.196 90.2818 309.866 90.0574 309.525 89.786C309.14 89.4967 308.805 89.1415 308.534 88.7358C308.388 88.5001 308.269 88.2464 308.182 87.9806C308.059 87.5867 308.026 87.1685 308.085 86.7591C308.144 86.3496 308.294 85.9599 308.523 85.6206C308.793 85.2151 309.157 84.8864 309.581 84.6648C309.967 84.4674 310.392 84.3625 310.822 84.358C311.501 84.3527 312.172 84.5274 312.768 84.8654C313.22 85.1124 313.637 85.422 314.008 85.7858C314.271 86.0493 314.515 86.3333 314.737 86.6354C315.089 87.131 315.226 87.4498 315.135 87.5442C315.044 87.6386 314.737 87.544 314.236 87.2018C313.608 86.774 312.935 86.4178 312.233 86.1398C311.812 85.9955 311.366 85.9432 310.924 85.9866C310.732 86.0013 310.546 86.0664 310.386 86.1758C310.224 86.2852 310.092 86.4353 310.003 86.6118C309.914 86.7688 309.869 86.9491 309.877 87.131C309.88 87.213 309.899 87.2935 309.934 87.367C309.971 87.4621 310.016 87.5531 310.071 87.6384C310.519 88.128 311.034 88.5492 311.596 88.8892C311.974 89.1633 312.321 89.4799 312.631 89.8332C312.797 90.0415 312.942 90.2669 313.064 90.5058C313.193 90.7566 313.281 91.0277 313.325 91.3082C313.42 91.8233 313.388 92.3547 313.233 92.8537C313.079 93.3527 312.804 93.8032 312.438 94.1639C312.119 94.4659 311.746 94.6987 311.34 94.8487C310.933 94.9987 310.502 95.0628 310.071 95.037C309.408 95.0008 308.761 94.8198 308.17 94.506C307.392 94.0759 306.715 93.4713 306.19 92.736C305.837 92.2168 305.712 91.8746 305.803 91.792Z" fill="#EBEBEB"/>
<path d="M308.398 96.0518C308.171 95.922 309.297 93.1608 310.936 89.8804C312.575 86.6 314.077 83.9804 314.35 84.1574C314.623 84.3344 313.451 87.0484 311.823 90.3288C310.196 93.6092 308.592 96.1698 308.398 96.0518Z" fill="#EBEBEB"/>
<path d="M307.26 95.0606C307.032 94.9426 308.045 92.4174 309.536 89.4438C311.027 86.4702 312.404 84.1456 312.643 84.2754C312.882 84.4052 311.857 86.9186 310.367 89.8922C308.876 92.8658 307.453 95.1904 307.26 95.0606Z" fill="#EBEBEB"/>
<g opacity="0.5">
<path d="M288.278 84.4881L295.493 69.5257H295.652C303.368 69.1953 311.823 77.5025 317.422 82.9895C318.378 83.9453 319.289 84.8303 320.097 85.5855C325.457 90.5769 333.001 88.8187 333.479 88.3467L333.957 88.6535L326.435 104.914H326.253C321.672 104.808 317.161 103.713 313.009 101.7C308.857 99.6866 305.156 96.7987 302.139 93.2201C298.099 88.2051 288.676 84.6887 288.585 84.6533L288.278 84.4881ZM295.88 70.1039L289.052 84.1577C290.725 84.8185 298.77 88.1107 302.549 92.7953C305.488 96.2961 309.094 99.1286 313.141 101.115C317.187 103.101 321.585 104.197 326.06 104.336L333.081 89.1373C332.574 89.2825 332.056 89.3929 331.533 89.4677C329.872 89.6919 324.102 90.1285 319.687 86.0221C318.89 85.2669 317.968 84.3701 317.001 83.4143C311.55 78.0335 303.277 69.9033 295.88 70.1039Z" fill="#FAFAFA"/>
</g>
<path d="M192.675 166.604C192.675 166.604 181.932 165.837 176.948 153.435C173.852 145.765 165.863 131.841 159.878 133.375L146.529 145.458C151.632 150.504 155.609 156.646 158.182 163.453C161.835 173.849 176.219 182.593 176.219 182.593L192.675 166.604Z" fill="#F5F5F5"/>
<path d="M160.458 162.285C159.878 161.176 159.535 159.95 159.453 158.691C159.372 157.432 159.553 156.169 159.986 154.989C160.418 153.811 161.091 152.742 161.958 151.855C162.825 150.97 163.866 150.289 165.01 149.86C169.209 148.444 174.342 152.81 175.719 157.164C176.047 158.198 176.175 159.289 176.095 160.375C176.014 161.461 175.729 162.519 175.253 163.49C174.777 164.46 174.121 165.324 173.322 166.031C172.523 166.738 171.597 167.273 170.598 167.607C166.387 169.023 162.586 166.38 160.458 162.285Z" fill="#EBEBEB"/>
<path d="M162.415 159.406C162.541 159.406 162.768 159.619 163.098 160.091C163.522 160.736 164.014 161.33 164.566 161.861C164.902 162.166 165.288 162.406 165.704 162.569C166.105 162.723 166.545 162.723 166.945 162.569C167.131 162.475 167.294 162.339 167.42 162.169C167.548 161.998 167.634 161.799 167.673 161.589C167.692 161.041 167.518 160.504 167.184 160.079C166.99 159.76 166.763 159.43 166.558 159.04C166.312 158.617 166.136 158.154 166.034 157.672C165.994 157.398 165.994 157.119 166.034 156.846C166.048 156.557 166.113 156.272 166.228 156.008C166.439 155.522 166.783 155.112 167.218 154.828C167.615 154.553 168.074 154.39 168.549 154.356C168.977 154.336 169.403 154.408 169.801 154.568C170.433 154.833 170.988 155.26 171.417 155.807C171.748 156.211 172.017 156.664 172.214 157.152C172.368 157.497 172.49 157.857 172.578 158.226C172.726 158.828 172.737 159.182 172.578 159.229C172.418 159.276 172.214 159.04 171.872 158.557C171.451 157.909 170.963 157.312 170.416 156.775C170.083 156.477 169.696 156.252 169.278 156.114C169.089 156.039 168.883 156.018 168.682 156.054C168.482 156.089 168.295 156.179 168.14 156.315C168.001 156.428 167.894 156.579 167.832 156.751C167.815 156.833 167.815 156.918 167.832 156.999C167.823 157.101 167.823 157.203 167.832 157.306C168.066 157.936 168.383 158.527 168.777 159.064C169.028 159.465 169.231 159.897 169.38 160.35C169.46 160.606 169.51 160.872 169.528 161.141C169.568 161.423 169.568 161.708 169.528 161.99C169.42 162.503 169.191 162.979 168.861 163.377C168.531 163.773 168.111 164.08 167.639 164.268C167.236 164.419 166.807 164.484 166.379 164.459C165.951 164.435 165.532 164.322 165.147 164.126C164.542 163.837 164.006 163.415 163.576 162.887C163.035 162.174 162.646 161.35 162.438 160.468C162.29 159.807 162.302 159.453 162.415 159.406Z" fill="#F5F5F5"/>
<path d="M163.189 164.362C163.019 164.15 165.09 162.002 167.81 159.642C170.529 157.282 172.885 155.489 173.044 155.701C173.204 155.913 171.144 158.061 168.424 160.421C165.704 162.781 163.36 164.563 163.189 164.362Z" fill="#F5F5F5"/>
<path d="M162.506 162.993C162.336 162.793 164.202 160.869 166.672 158.698C169.141 156.527 171.292 154.958 171.451 155.158C171.61 155.359 169.755 157.294 167.286 159.453C164.817 161.613 162.734 163.206 162.506 162.993Z" fill="#F5F5F5"/>
<g opacity="0.5">
<path d="M148.941 145.695L161.129 134.744H161.289C168.538 137.517 173.26 148.55 176.39 155.854C176.936 157.105 177.448 158.297 177.904 159.3C181.01 166.061 188.623 167.43 189.284 167.182L189.614 167.654L176.652 179.69L176.481 179.608C172.289 177.675 168.53 174.859 165.444 171.338C162.358 167.818 160.013 163.669 158.558 159.158C156.691 152.916 149.294 145.919 149.215 145.848L148.941 145.695ZM161.243 135.417L149.784 145.706C151.104 146.969 157.306 153.211 159.058 159.04C160.47 163.451 162.749 167.512 165.749 170.964C168.749 174.416 172.408 177.186 176.492 179.1L188.601 167.867C188.078 167.798 187.561 167.692 187.053 167.548C185.437 167.1 179.941 165.188 177.391 159.654C176.925 158.639 176.424 157.447 175.878 156.185C172.817 148.987 168.185 138.202 161.243 135.417Z" fill="#EBEBEB"/>
</g>
<path d="M115.405 271.01C114.534 273.395 113.057 275.491 111.133 277.078C109.208 278.665 106.905 279.683 104.468 280.026C99.0174 281.029 88.7527 284.522 88.8778 288.923L94.7272 300.074C98.7732 297.268 103.359 295.408 108.167 294.622C115.473 293.643 123.325 284.899 123.325 284.899L115.405 271.01Z" fill="#F5F5F5"/>
<path d="M107.757 292.852C106.95 293.092 106.102 293.149 105.272 293.02C104.441 292.89 103.647 292.576 102.943 292.101C102.24 291.625 101.643 290.999 101.193 290.264C100.744 289.527 100.452 288.7 100.338 287.837C100.042 284.687 103.661 281.749 106.699 281.454C108.158 281.309 109.613 281.771 110.744 282.738C111.875 283.704 112.589 285.098 112.73 286.61C113.015 289.761 110.693 292.003 107.757 292.852Z" fill="#EBEBEB"/>
<path d="M106.164 291.082C106.164 290.988 106.357 290.87 106.722 290.705C107.202 290.505 107.66 290.252 108.087 289.95C108.342 289.754 108.558 289.509 108.724 289.23C108.889 288.973 108.951 288.66 108.895 288.357C108.863 288.213 108.798 288.078 108.708 287.963C108.617 287.848 108.502 287.757 108.372 287.696C108.017 287.603 107.641 287.645 107.313 287.814C107.074 287.908 106.824 288.014 106.539 288.097C106.229 288.21 105.901 288.266 105.572 288.262C105.387 288.254 105.204 288.222 105.026 288.168C104.843 288.11 104.67 288.023 104.514 287.908C104.228 287.683 104.008 287.381 103.877 287.035C103.764 286.711 103.729 286.362 103.774 286.02C103.823 285.719 103.936 285.433 104.104 285.182C104.367 284.778 104.728 284.452 105.151 284.238C105.465 284.067 105.803 283.948 106.153 283.884C106.397 283.835 106.644 283.804 106.892 283.79C107.313 283.79 107.541 283.79 107.552 283.92C107.564 284.05 107.37 284.144 107.017 284.309C106.533 284.509 106.072 284.761 105.64 285.064C105.388 285.247 105.181 285.489 105.037 285.772C104.974 285.892 104.94 286.026 104.94 286.162C104.94 286.298 104.974 286.432 105.037 286.551C105.085 286.667 105.164 286.765 105.265 286.834L105.424 286.905H105.629C106.074 286.836 106.507 286.7 106.915 286.504C107.213 286.393 107.522 286.319 107.837 286.28C108.018 286.256 108.202 286.256 108.383 286.28C108.57 286.299 108.752 286.354 108.918 286.445C109.235 286.595 109.512 286.825 109.722 287.113C109.933 287.402 110.071 287.739 110.124 288.097C110.196 288.717 110.028 289.34 109.658 289.832C109.378 290.208 109.02 290.515 108.611 290.728C108.068 291.018 107.468 291.174 106.858 291.189C106.414 291.236 106.187 291.177 106.164 291.082Z" fill="#F5F5F5"/>
<path d="M109.499 291.283C107.738 288.78 106.346 286.02 105.368 283.094C106.335 284.283 107.132 285.611 107.735 287.035C108.526 288.351 109.121 289.782 109.499 291.283Z" fill="#F5F5F5"/>
<path d="M108.52 291.555C108.349 291.649 107.382 290.056 106.346 288.015C105.621 286.817 105.087 285.506 104.764 284.132C105.663 285.185 106.393 286.38 106.927 287.672C107.65 288.871 108.188 290.182 108.52 291.555Z" fill="#F5F5F5"/>
<g opacity="0.5">
<path d="M95.2166 298.446L89.9021 288.274V288.168C92.7926 283.519 100.679 281.867 105.902 280.781C106.801 280.592 107.655 280.415 108.383 280.238C109.977 279.803 111.438 278.957 112.632 277.779C113.826 276.601 114.713 275.129 115.211 273.5L115.564 273.347L121.436 284.227L121.368 284.321C119.479 286.959 117.081 289.162 114.326 290.787C111.571 292.412 108.52 293.426 105.368 293.761C101.032 294.127 95.3645 298.245 95.3076 298.292L95.2166 298.446ZM90.3914 288.298L95.3531 297.856C96.3773 297.124 101.373 293.726 105.424 293.383C108.503 293.053 111.482 292.065 114.175 290.484C116.868 288.902 119.216 286.759 121.072 284.191L115.587 274.031C115.466 274.389 115.318 274.737 115.143 275.07C114.482 276.424 113.553 277.62 112.418 278.579C111.283 279.538 109.967 280.24 108.554 280.639C107.826 280.816 106.972 280.993 106.073 281.182C100.952 282.244 93.2364 283.861 90.3914 288.298Z" fill="#EBEBEB"/>
</g>
<path d="M532.061 169.472C530.011 170.879 527.633 171.686 525.177 171.809C522.721 171.932 520.279 171.364 518.109 170.168C513.113 167.678 502.814 164.268 500.447 167.938L498.899 180.54C503.768 180.704 508.541 181.973 512.885 184.257C519.372 187.88 530.672 185.543 530.672 185.543L532.061 169.472Z" fill="#F5F5F5"/>
<path d="M513.545 182.57C512.754 182.276 512.034 181.809 511.433 181.2C510.831 180.591 510.363 179.856 510.062 179.043C509.759 178.23 509.629 177.359 509.681 176.489C509.732 175.619 509.963 174.771 510.359 174.003C511.895 171.277 516.481 171.076 519.11 172.669C519.738 173.048 520.288 173.551 520.727 174.149C521.168 174.749 521.488 175.431 521.674 176.159C521.858 176.887 521.904 177.646 521.805 178.391C521.707 179.137 521.468 179.855 521.102 180.505C519.565 183.242 516.413 183.667 513.545 182.57Z" fill="#EBEBEB"/>
<path d="M513.238 180.162C513.238 180.08 513.511 180.162 513.898 180.162C514.4 180.296 514.915 180.368 515.434 180.375C515.751 180.366 516.063 180.298 516.356 180.174C516.632 180.058 516.857 179.845 516.993 179.572C517.046 179.435 517.069 179.288 517.058 179.14C517.049 178.994 517.007 178.85 516.937 178.723C516.699 178.431 516.368 178.239 516.003 178.18C515.764 178.109 515.503 178.038 515.218 177.932C514.905 177.832 514.609 177.68 514.342 177.484C514.2 177.365 514.07 177.23 513.955 177.083C513.841 176.921 513.752 176.741 513.693 176.551C513.591 176.193 513.591 175.812 513.693 175.454C513.781 175.124 513.949 174.823 514.183 174.581C514.387 174.359 514.641 174.193 514.922 174.097C515.363 173.933 515.836 173.884 516.299 173.955C516.649 174.014 516.99 174.122 517.312 174.274C517.539 174.386 517.759 174.512 517.972 174.652C518.314 174.899 518.473 175.077 518.439 175.159C518.405 175.242 518.166 175.23 517.779 175.159C517.272 175.028 516.753 174.953 516.231 174.935C515.924 174.94 515.621 175.012 515.343 175.147C515.223 175.2 515.116 175.285 515.035 175.393C514.953 175.499 514.898 175.626 514.877 175.761C514.841 175.88 514.841 176.008 514.877 176.127C514.896 176.185 514.927 176.236 514.968 176.28C515.009 176.336 515.059 176.384 515.116 176.422C515.513 176.639 515.939 176.793 516.379 176.882C516.69 176.966 516.989 177.093 517.267 177.26C517.42 177.355 517.566 177.466 517.699 177.59C517.829 177.73 517.944 177.884 518.04 178.05C518.208 178.369 518.295 178.726 518.295 179.089C518.295 179.451 518.208 179.808 518.04 180.127C517.904 180.407 517.714 180.654 517.484 180.857C517.253 181.059 516.985 181.212 516.698 181.307C516.254 181.438 515.789 181.473 515.332 181.413C514.732 181.309 514.162 181.072 513.659 180.717C513.375 180.434 513.238 180.245 513.238 180.162Z" fill="#F5F5F5"/>
<path d="M515.856 182.357C515.737 180.808 515.841 179.249 516.163 177.732C516.263 176.18 516.585 174.653 517.119 173.2C517.223 174.75 517.12 176.306 516.811 177.826C516.711 179.377 516.389 180.903 515.856 182.357Z" fill="#F5F5F5"/>
<path d="M514.899 181.98C514.764 180.574 514.849 179.156 515.15 177.779C515.229 176.367 515.533 174.98 516.049 173.672C516.177 175.078 516.093 176.495 515.798 177.873C515.712 179.283 515.408 180.669 514.899 181.98Z" fill="#F5F5F5"/>
<g opacity="0.5">
<path d="M500.219 179.513L501.664 168.056H501.778C506.74 166.026 514.069 169.472 518.928 171.749C519.759 172.138 520.544 172.516 521.204 172.811C522.744 173.422 524.407 173.622 526.04 173.388C527.673 173.156 529.225 172.498 530.547 171.478L530.922 171.56L529.557 183.95H529.443C526.423 184.951 523.235 185.288 520.083 184.941C516.931 184.594 513.882 183.569 511.133 181.932C507.4 179.572 500.481 179.513 500.413 179.513H500.219ZM502.029 168.351L500.663 179.112C501.903 179.112 507.878 179.407 511.36 181.578C514.044 183.18 517.017 184.186 520.094 184.535C523.172 184.885 526.285 184.569 529.238 183.608L530.501 172.032C530.206 172.25 529.894 172.444 529.568 172.61C528.268 173.308 526.84 173.716 525.378 173.808C523.916 173.899 522.451 173.672 521.079 173.141L518.803 172.068C514.012 169.837 506.842 166.474 502.029 168.351Z" fill="#EBEBEB"/>
</g>
<path d="M542.177 542.588C542.177 542.765 426.807 542.906 284.511 542.906C142.216 542.906 26.8225 542.8 26.8225 542.588C26.8225 542.375 142.17 542.281 284.511 542.281C426.853 542.281 542.177 542.422 542.177 542.588Z" fill="#263238"/>
<path d="M258.542 283.613C256.809 279.733 255.448 275.686 254.48 271.53C253.51 267.34 253.76 262.947 255.196 258.904C255.934 256.901 257.131 255.114 258.683 253.698C260.236 252.282 262.097 251.277 264.107 250.774C266.599 250.266 269.274 250.691 271.663 249.782C274.429 248.72 276.272 246.089 278.423 244C281.826 240.728 286.157 238.683 290.77 238.171C293.179 237.818 295.635 238.188 297.849 239.233C298.945 239.769 299.891 240.583 300.602 241.6C301.312 242.617 301.762 243.805 301.911 245.051C304.691 243.943 307.599 243.217 310.56 242.891C313.553 242.577 316.546 243.498 318.89 245.452C320.028 246.45 320.828 247.799 321.174 249.302C321.52 250.804 321.394 252.383 320.814 253.806C322.076 253.162 323.522 253.025 324.875 253.422C326.229 253.818 327.392 254.72 328.142 255.954C328.841 257.231 329.169 258.69 329.086 260.156C329.004 261.621 328.513 263.03 327.676 264.214C325.593 266.794 322.692 268.522 319.493 269.087C316.717 269.488 313.485 269.76 310.833 268.839" fill="#263238"/>
<path d="M265.336 366.744L305.166 363.44C305.416 358.614 305.086 339.958 305.086 339.958C305.086 339.958 321.656 337.279 321.861 320.099C322.065 302.918 319.198 263.459 319.198 263.459C309.776 259.259 299.445 257.743 289.269 259.069C279.094 260.394 269.445 264.512 261.319 270.999L258.861 272.958L265.336 366.744Z" fill="#B78876"/>
<path d="M305.121 339.71C297.463 339.861 289.935 337.643 283.499 333.338C283.499 333.338 288.608 345.705 305.121 344.159V339.71Z" fill="#AA6550"/>
<path d="M260.909 290.764C260.636 290.634 249.529 287.224 249.894 299.024C250.258 310.824 261.547 307.98 261.558 307.638C261.569 307.296 260.909 290.764 260.909 290.764Z" fill="#B78876"/>
<path d="M257.962 303.26C257.962 303.26 257.768 303.402 257.438 303.579C256.976 303.799 256.451 303.824 255.97 303.649C254.753 303.236 253.694 301.289 253.569 299.189C253.508 298.182 253.664 297.175 254.024 296.239C254.12 295.868 254.302 295.526 254.554 295.245C254.806 294.963 255.12 294.75 255.47 294.622C255.688 294.566 255.919 294.586 256.125 294.68C256.331 294.773 256.501 294.936 256.608 295.142C256.767 295.46 256.699 295.696 256.756 295.72C256.812 295.743 256.995 295.507 256.892 295.035C256.82 294.744 256.655 294.487 256.426 294.304C256.093 294.067 255.685 293.973 255.288 294.044C254.827 294.156 254.401 294.389 254.051 294.719C253.7 295.049 253.437 295.467 253.285 295.932C252.829 296.967 252.63 298.102 252.704 299.236C252.841 301.596 254.081 303.779 255.731 304.216C256.04 304.298 256.361 304.308 256.672 304.242C256.984 304.177 257.277 304.039 257.529 303.838C257.95 303.579 258.007 303.26 257.962 303.26Z" fill="#AA6550"/>
<path d="M313.769 290.091C313.773 290.728 313.537 291.342 313.113 291.802C312.688 292.262 312.108 292.533 311.493 292.557C311.193 292.581 310.89 292.543 310.605 292.445C310.318 292.346 310.053 292.19 309.825 291.985C309.598 291.78 309.411 291.53 309.278 291.249C309.145 290.968 309.066 290.663 309.047 290.351C309.041 289.711 309.275 289.095 309.7 288.633C310.126 288.17 310.707 287.898 311.323 287.873C311.625 287.849 311.928 287.887 312.216 287.986C312.503 288.085 312.768 288.242 312.996 288.45C313.223 288.656 313.41 288.908 313.542 289.19C313.675 289.472 313.752 289.777 313.769 290.091Z" fill="#263238"/>
<path d="M316.068 287.625C315.772 287.955 313.985 286.575 311.436 286.587C308.887 286.598 307.021 287.908 306.748 287.59C306.475 287.271 306.907 286.87 307.726 286.244C308.831 285.46 310.144 285.048 311.482 285.064C312.8 285.05 314.089 285.462 315.169 286.244C315.943 286.905 316.216 287.483 316.068 287.625Z" fill="#263238"/>
<path d="M288.733 290.091C288.737 290.728 288.501 291.342 288.077 291.802C287.652 292.262 287.072 292.533 286.457 292.557C286.157 292.581 285.854 292.543 285.569 292.445C285.282 292.346 285.017 292.19 284.789 291.985C284.561 291.78 284.375 291.53 284.242 291.249C284.108 290.968 284.03 290.663 284.011 290.351C284.005 289.711 284.239 289.095 284.664 288.633C285.089 288.17 285.671 287.898 286.287 287.873C286.589 287.849 286.892 287.887 287.18 287.986C287.467 288.085 287.732 288.242 287.959 288.45C288.187 288.656 288.374 288.908 288.506 289.19C288.639 289.472 288.716 289.777 288.733 290.091Z" fill="#263238"/>
<path d="M291.032 288.121C290.736 288.439 288.95 287.07 286.4 287.07C283.851 287.07 281.985 288.404 281.712 288.073C281.575 287.932 281.871 287.354 282.691 286.74C283.793 285.951 285.107 285.538 286.446 285.56C287.765 285.54 289.055 285.953 290.133 286.74C290.907 287.401 291.18 287.979 291.032 288.121Z" fill="#263238"/>
<path d="M300.273 307.709C301.617 307.268 303.009 307.007 304.415 306.93C305.064 306.859 305.678 306.729 305.792 306.269C305.841 305.575 305.69 304.881 305.36 304.275L303.436 299.13C300.762 291.826 298.827 285.808 299.112 285.702C299.396 285.595 301.798 291.436 304.461 298.682C305.106 300.483 305.72 302.206 306.304 303.85C306.716 304.662 306.837 305.598 306.646 306.493C306.552 306.732 306.407 306.945 306.221 307.116C306.036 307.289 305.815 307.415 305.576 307.484C305.206 307.589 304.822 307.641 304.438 307.638C303.059 307.848 301.659 307.871 300.273 307.709Z" fill="#263238"/>
<path d="M292.785 309.538C293.194 309.538 293.206 312.37 295.573 314.411C297.94 316.452 300.876 316.134 300.899 316.535C300.899 316.712 300.239 317.09 298.998 317.125C297.378 317.144 295.803 316.572 294.549 315.508C293.345 314.489 292.57 313.026 292.386 311.426C292.284 310.222 292.591 309.514 292.785 309.538Z" fill="#263238"/>
<path d="M315.135 282.988C314.68 283.578 312.927 282.988 310.822 282.988C308.717 282.988 306.919 283.389 306.509 282.763C306.327 282.457 306.611 281.855 307.396 281.288C308.446 280.61 309.665 280.268 310.9 280.308C312.136 280.348 313.332 280.767 314.338 281.513C315.089 282.02 315.328 282.693 315.135 282.988Z" fill="#263238"/>
<path d="M287.721 278.574C287.436 278.905 286.787 278.763 285.934 278.574C283.868 278.064 281.723 277.992 279.629 278.362C278.764 278.468 278.104 278.563 277.843 278.22C277.581 277.878 277.843 277.147 278.73 276.391C279.937 275.483 281.401 275.018 282.892 275.069C284.382 275.121 285.813 275.685 286.958 276.675C287.789 277.512 287.994 278.279 287.721 278.574Z" fill="#263238"/>
<path d="M320.028 268.733C312.053 270.98 303.594 270.534 295.88 267.459C287.288 264.084 277.558 263.022 275.624 264.945C273.689 266.869 274.099 275.648 266.246 279.046C266.246 279.046 268.431 295.649 261.968 295.72C255.504 295.791 256.994 269.571 256.994 269.571L271.891 259.989L288.642 254.88L304.665 253.204L320.028 256.39V268.733Z" fill="#263238"/>
<path d="M362.829 406.239C362.829 406.239 391.688 437.048 401.862 432.47C429.527 420.08 452.014 393.837 459.752 384.432C460.082 382.662 460.412 380.585 460.697 378.107C460.937 375.967 460.821 373.8 460.355 371.7C459.886 369.055 459.067 366.489 457.92 364.077C456.657 361.965 458.478 359.428 460.469 360.289C462.461 361.151 467.297 366.732 468.31 374.591C468.433 375.039 468.648 375.456 468.94 375.81C469.234 376.164 469.597 376.448 470.005 376.642C470.415 376.837 470.86 376.936 471.31 376.935C471.759 376.932 472.204 376.83 472.611 376.632C477.619 374.921 494.632 368.077 497.647 367.346C500.345 366.697 503.565 366.862 501.767 368.903C499.969 370.945 487.428 378.556 487.428 378.556C487.428 378.556 503.679 368.243 505.022 370.768C505.944 372.514 502.518 376.526 491.115 382.237C491.115 382.237 504.567 373.848 506.865 374.119C512.032 374.744 495.94 385.01 495.94 385.01C507.32 377.93 506.74 377.447 507.969 378.827C508.891 379.854 506.899 382.202 501.312 386.922C496.76 390.757 492.822 395.666 486.222 401.884C486.222 401.884 417.942 500.355 374.982 470.136C351.824 453.84 345.463 445.627 332.319 433.284" fill="#B78876"/>
<path d="M489.203 389.4C489.374 389.695 492.936 387.677 497.169 384.881C501.403 382.084 504.68 379.583 504.487 379.299C504.293 379.016 500.731 381.046 496.521 383.831C492.31 386.615 489.044 389.141 489.203 389.4Z" fill="#AA6550"/>
<path d="M486.12 385.211C486.279 385.506 490.205 383.571 494.871 380.88C499.537 378.19 503.19 375.771 503.03 375.464C502.871 375.157 498.956 377.104 494.279 379.795C489.602 382.485 485.926 384.904 486.12 385.211Z" fill="#AA6550"/>
<path d="M482.944 380.798C483.104 381.104 486.836 379.334 491.286 376.856C495.736 374.378 499.252 372.136 499.059 371.806C498.865 371.476 495.167 373.269 490.717 375.747C486.267 378.225 482.785 380.491 482.944 380.798Z" fill="#AA6550"/>
<path d="M191.969 430.7C191.969 430.7 177.426 470.914 166.341 470.95C136.184 471.044 105.47 456.377 94.7501 450.972C93.7715 449.486 92.6562 447.716 91.4386 445.568C90.3973 443.706 89.6662 441.675 89.2764 439.562C88.6943 436.94 88.457 434.249 88.5708 431.561C88.9122 429.107 86.2948 427.526 84.7699 429.201C83.245 430.877 80.9917 437.945 83.1084 445.568C83.1695 446.03 83.1331 446.5 83.0017 446.946C82.8702 447.392 82.6468 447.804 82.3471 448.152C82.0473 448.5 81.6783 448.776 81.2654 448.962C80.8527 449.147 80.4059 449.237 79.9561 449.226C74.71 449.733 56.4792 450.524 53.418 451.114C50.6982 451.645 47.8076 453.132 50.243 454.253C52.0182 455.067 60.1208 456.223 64.4224 456.79C59.199 456.176 48.1718 455.126 47.9897 457.309C47.8759 458.595 49.8105 459.988 54.5787 460.943C51.3241 460.719 48.388 460.672 47.6028 461.156C43.0508 463.87 61.8164 466.584 61.8164 466.584C48.6839 464.802 48.9912 464.153 48.3994 465.923C47.9556 467.245 50.6754 468.578 57.6286 470.643C63.3186 472.271 68.781 475.115 77.2363 478.077C77.2363 478.077 177.858 539.933 205.523 494.408C220.442 469.864 223.105 459.693 230.377 442.913L191.969 430.7Z" fill="#B78876"/>
<path d="M69.6915 467.764C69.6915 468.106 65.6061 467.764 60.5875 466.926C55.569 466.088 51.6655 465.203 51.7338 464.861C51.8021 464.519 55.8534 464.861 60.8378 465.699C65.8222 466.537 69.7257 467.422 69.6915 467.764Z" fill="#AA6550"/>
<path d="M70.8863 462.56C70.8863 462.902 66.5163 462.761 61.2019 462.241C55.8874 461.722 51.5972 461.061 51.6313 460.66C51.6654 460.259 55.9898 460.471 61.3157 460.991C66.6415 461.51 70.909 462.265 70.8863 462.56Z" fill="#AA6550"/>
<path d="M72.0922 457.25C72.0922 457.592 67.9613 457.533 62.9199 457.096C57.8786 456.66 53.8159 456.046 53.8159 455.704C53.8159 455.362 57.9469 455.433 62.9882 455.858C68.0295 456.282 72.115 456.908 72.0922 457.25Z" fill="#AA6550"/>
<path d="M396.877 432.564L349.275 377.482C336.017 363.971 328.939 359.935 310.492 357.67C307.476 357.304 305.075 357.068 303.357 356.844C289.533 361.375 274.698 361.375 260.875 356.844C254.309 357.127 248.869 359.204 243.293 360.384C225.699 363.924 213.045 377.163 209.528 389.424L169.846 469.793L203.361 498.998L233.973 448.612L235.839 502.243L233.939 542.363L351.437 542.717L346.1 448.636L377.725 475.328L396.877 432.564Z" fill="#0A0D39"/>
<path d="M234.508 414.853C234.626 415.443 234.675 416.044 234.656 416.646C234.656 417.826 234.735 419.455 234.769 421.52C234.769 425.626 234.849 431.314 234.769 437.591C234.69 443.869 234.667 449.556 234.576 453.663C234.576 455.728 234.474 457.392 234.428 458.536C234.443 459.136 234.386 459.734 234.257 460.318C234.132 459.734 234.079 459.134 234.098 458.536C234.098 457.356 234.018 455.716 233.984 453.663C233.927 449.545 233.905 443.869 233.984 437.579C234.064 431.29 234.087 425.626 234.178 421.508C234.178 419.455 234.28 417.791 234.337 416.634C234.316 416.035 234.373 415.435 234.508 414.853Z" fill="#263238"/>
<path d="M348.092 483.8C347.911 482.89 347.796 481.966 347.75 481.039C347.579 479.104 347.363 476.555 347.09 473.487C346.578 467.103 345.952 458.277 345.269 448.53C344.587 438.783 344.04 430.004 343.676 423.62C343.528 420.54 343.392 417.98 343.301 416.044C343.227 415.118 343.227 414.186 343.301 413.26C343.491 414.168 343.609 415.092 343.653 416.021C343.824 417.956 344.04 420.505 344.302 423.573C344.814 429.957 345.44 438.783 346.134 448.53C346.828 458.277 347.352 467.103 347.716 473.499C347.875 476.578 348.001 479.139 348.103 481.074C348.168 481.982 348.164 482.892 348.092 483.8Z" fill="#263238"/>
<g opacity="0.3">
<path d="M365.514 396.02C365.514 396.185 329.861 396.326 285.854 396.326C241.848 396.326 206.194 396.185 206.194 396.02C206.194 395.854 241.848 395.713 285.854 395.713C329.861 395.713 365.514 395.843 365.514 396.02Z" fill="#EBEBEB"/>
</g>
<g opacity="0.3">
<path d="M377.816 444.966C377.816 445.143 334.367 445.273 280.79 445.273C227.213 445.273 183.753 445.143 183.753 444.966C183.753 444.789 227.19 444.659 280.79 444.659C334.39 444.659 377.816 444.86 377.816 444.966Z" fill="#EBEBEB"/>
</g>
<g opacity="0.3">
<path d="M349.047 500.78C349.047 500.957 323.818 501.087 292.694 501.087C261.569 501.087 236.34 500.957 236.34 500.78C236.34 500.603 261.569 500.473 292.694 500.473C323.818 500.473 349.047 500.615 349.047 500.78Z" fill="#EBEBEB"/>
</g>
<g opacity="0.3">
<path d="M248.949 542.588C248.79 542.588 248.653 501.476 248.653 450.784C248.653 400.091 248.79 358.956 248.949 358.956C249.108 358.956 249.222 400.02 249.222 450.76C249.222 501.5 249.12 542.588 248.949 542.588Z" fill="#EBEBEB"/>
</g>
<g opacity="0.3">
<path d="M317.047 542.599C317.047 542.599 317.047 542.434 317.047 542.127C317.047 541.821 317.047 541.313 317.047 540.723C317.047 539.472 317.047 537.667 316.99 535.366C316.99 530.646 316.899 523.932 316.842 515.636C316.694 498.939 316.489 475.941 316.273 450.536C316.057 425.13 315.897 402.085 315.886 385.423C315.886 377.163 315.886 370.39 315.886 365.694C315.886 363.334 315.886 361.587 315.943 360.337C315.943 359.747 315.943 359.275 315.943 358.932C315.928 358.776 315.928 358.617 315.943 358.46C315.943 358.46 315.943 358.626 315.943 358.932C315.943 359.239 315.943 359.747 315.943 360.337C315.943 361.587 315.943 363.393 316 365.694C316 370.414 316.091 377.116 316.148 385.423C316.296 402.109 316.501 425.119 316.717 450.536C316.933 475.953 317.092 498.916 317.104 515.625C317.104 523.885 317.104 530.67 317.104 535.366C317.104 537.667 317.104 539.472 317.104 540.723C317.104 541.313 317.104 541.773 317.104 542.127C317.099 542.287 317.08 542.445 317.047 542.599Z" fill="#EBEBEB"/>
</g>
<g opacity="0.3">
<path d="M365.218 464.118C365.059 464.118 364.922 449.25 364.922 430.912C364.922 412.575 365.059 397.707 365.218 397.707C365.378 397.707 365.514 412.563 365.514 430.912C365.514 449.261 365.389 464.118 365.218 464.118Z" fill="#EBEBEB"/>
</g>
<g opacity="0.3">
<path d="M195.645 477.723C195.474 477.723 195.349 463.705 195.349 446.406C195.349 429.107 195.474 415.077 195.645 415.077C195.816 415.077 195.941 429.095 195.941 446.406C195.941 463.716 195.804 477.723 195.645 477.723Z" fill="#EBEBEB"/>
</g>
<path d="M256.482 358.46L262.969 344.324L284.215 359.853L305.177 345.244L312.552 357.658L291.544 371.818H277.501L256.482 360.101" fill="#0A0D39"/>
<path d="M284.216 359.9C284.088 359.958 283.955 359.997 283.817 360.018C283.426 360.069 283.042 360.176 282.679 360.337C281.368 360.89 280.26 361.861 279.516 363.11C278.364 364.976 277.384 366.952 276.591 369.01C276.09 370.19 275.589 371.37 274.952 372.632C274.326 373.941 273.5 375.137 272.505 376.172L272.301 376.373L272.096 376.149L270.89 374.851C266.679 370.272 263.094 365.918 260.648 362.685C259.396 361.068 258.372 359.747 257.757 358.814C257.384 358.354 257.056 357.856 256.778 357.328C257.199 357.732 257.581 358.18 257.916 358.661L260.943 362.413C263.515 365.564 267.145 369.871 271.333 374.426L272.54 375.724H272.13C273.088 374.739 273.88 373.594 274.474 372.337C275.1 371.157 275.612 369.918 276.124 368.797C276.96 366.729 277.993 364.752 279.208 362.897C280.022 361.615 281.223 360.647 282.622 360.148C282.989 360.018 283.373 359.946 283.76 359.935C284.068 359.829 284.216 359.829 284.216 359.9Z" fill="#263238"/>
<path d="M312.176 357.929C311.881 358.439 311.534 358.914 311.141 359.345C310.424 360.23 309.377 361.481 308.011 362.956C304.423 366.796 300.504 370.288 296.301 373.387C295.379 374.06 294.457 374.709 293.57 375.311L293.16 375.582V375.063C292.902 372.578 292.319 370.141 291.43 367.818C290.771 365.933 289.822 364.172 288.619 362.602C287.843 361.543 286.8 360.726 285.604 360.242C284.762 359.947 284.25 359.912 284.261 359.853C284.272 359.794 284.386 359.853 284.625 359.853C284.98 359.865 285.332 359.924 285.672 360.03C286.944 360.458 288.07 361.257 288.915 362.331C290.196 363.906 291.212 365.693 291.92 367.617C292.856 369.993 293.472 372.491 293.752 375.039L293.297 374.803C294.173 374.19 295.083 373.553 296.005 372.88C300.18 369.805 304.109 366.384 307.749 362.649C309.16 361.222 310.253 360.018 311.015 359.192C311.368 358.739 311.756 358.316 312.176 357.929Z" fill="#263238"/>
<path d="M292.295 542.599C292.295 542.599 292.295 542.434 292.295 542.127C292.295 541.821 292.295 541.337 292.295 540.747C292.295 539.508 292.295 537.726 292.227 535.449C292.227 530.811 292.102 524.156 291.999 515.943C291.772 499.482 291.26 476.744 290.156 451.645C289.052 426.546 287.527 403.855 286.309 387.441C285.672 379.252 285.171 372.62 284.807 367.995C284.637 365.729 284.5 363.959 284.398 362.72C284.398 362.13 284.329 361.682 284.318 361.34C284.301 361.183 284.301 361.025 284.318 360.868C284.318 360.868 284.318 361.021 284.386 361.328C284.455 361.635 284.466 362.13 284.534 362.708C284.659 363.947 284.83 365.717 285.046 367.983C285.49 372.561 286.071 379.193 286.742 387.406C288.073 403.808 289.644 426.511 290.759 451.621C291.874 476.732 292.307 499.47 292.432 515.943C292.5 524.203 292.5 530.847 292.432 535.449C292.432 537.726 292.432 539.508 292.432 540.747C292.432 541.337 292.432 541.785 292.432 542.127C292.401 542.289 292.356 542.447 292.295 542.599Z" fill="#263238"/>
<g opacity="0.2">
<path d="M283.715 359.9C286.298 361.422 287.254 364.809 287.265 367.877C287.277 370.945 286.571 374.013 286.822 377.081C286.819 377.887 286.998 378.681 287.342 379.404C287.684 380.126 288.185 380.756 288.802 381.246C290.6 382.426 292.887 381.317 294.731 380.267C298.691 378.013 302.697 375.712 305.94 372.431C307.492 370.775 308.697 368.803 309.481 366.64C310.264 364.478 310.608 362.171 310.492 359.865C305.03 365.942 299.522 369.611 293.547 374.402C293.119 371.168 292.1 368.048 290.543 365.21C288.995 362.425 286.799 359.546 283.715 359.9Z" fill="black"/>
</g>
<g opacity="0.2">
<path d="M264.198 366.886C266.212 370.98 268.329 375.146 271.8 378.06C273.336 379.323 275.589 380.279 277.194 379.099C278.48 378.143 278.696 376.29 278.799 374.65C279.072 370.496 280.255 365.717 280.528 361.552C277.353 365.269 275.612 371.818 272.266 376.314C268.852 374.084 266.884 370.272 264.426 366.956" fill="black"/>
</g>
<g opacity="0.2">
<path d="M367.574 466.1L383.426 435.526C378.738 436.01 375.585 440.6 373.184 444.801C370.783 449.002 367.836 453.663 363.181 454.501C359.949 455.079 356.717 453.58 353.895 451.834C351.073 450.087 348.342 448.022 345.133 447.291L367.574 466.1Z" fill="black"/>
</g>
<g opacity="0.2">
<path d="M228.317 457.84C228.317 457.84 217.278 469.888 209.836 471.658C206.094 472.512 202.219 472.533 198.468 471.72C194.718 470.906 191.176 469.277 188.077 466.938C187.603 466.506 187.038 466.196 186.427 466.029C186.119 465.963 185.798 466.022 185.529 466.193C185.261 466.364 185.065 466.635 184.982 466.95C184.994 467.238 185.071 467.517 185.205 467.77C185.339 468.021 185.528 468.237 185.756 468.401C193.343 475.725 201.249 482.694 209.472 489.311L228.317 457.84Z" fill="black"/>
</g>
<g opacity="0.2">
<path d="M280.301 375.712C276.113 410.396 273.378 445.222 272.096 480.189C271.902 485.653 271.766 491.281 273.643 496.391C275.828 502.291 280.471 506.893 285.023 511.211C286.947 513.052 289.575 515.035 291.92 513.89C292.814 513.368 293.575 512.632 294.139 511.742C296.984 507.943 299.647 503.836 300.705 499.14C304.005 484.437 290.622 469.888 293.638 455.114" fill="black"/>
</g>
<path d="M279.22 363.641L289.268 363.369L291.954 368.974L288.733 378.343H280.528L276.181 369.954L279.22 363.641Z" fill="#455A64"/>
<path d="M280.528 378.344L275.828 497.594L289.484 512.993L302.105 494.397L288.733 378.344H280.528Z" fill="#455A64"/>
<path d="M288.255 378.509C286.992 378.636 285.719 378.636 284.455 378.509C283.19 378.592 281.921 378.55 280.665 378.379C283.158 377.69 285.787 377.735 288.255 378.509Z" fill="#263238"/>
<path d="M290.418 365.387C290.088 366.055 289.658 366.665 289.143 367.192C287.997 368.546 286.732 369.786 285.365 370.898C284.01 372.015 282.558 373.003 281.029 373.848C280.418 374.252 279.744 374.549 279.038 374.721C278.958 374.556 281.871 372.998 285.001 370.414C288.13 367.83 290.281 365.257 290.418 365.387Z" fill="#263238"/>
<path d="M289.974 389.99C288.484 391.95 286.844 393.78 285.069 395.465C283.428 397.295 281.642 398.98 279.732 400.504C281.224 398.543 282.868 396.711 284.648 395.029C286.284 393.197 288.065 391.512 289.974 389.99Z" fill="#263238"/>
<path d="M290.668 398.58C288.984 400.741 287.147 402.768 285.171 404.646C283.343 406.676 281.368 408.562 279.265 410.286C280.952 408.123 282.788 406.092 284.762 404.209C286.594 402.184 288.568 400.302 290.668 398.58Z" fill="#EBEBEB"/>
<path d="M291.965 406.51C289.979 408.984 287.843 411.326 285.57 413.519C283.429 415.86 281.149 418.059 278.742 420.104C280.726 417.623 282.862 415.279 285.137 413.083C287.273 410.74 289.554 408.544 291.965 406.51Z" fill="#263238"/>
<path d="M292.864 414.864C290.679 417.539 288.35 420.085 285.888 422.487C283.56 425.023 281.094 427.417 278.503 429.661C280.677 426.984 283.002 424.442 285.467 422.05C287.796 419.508 290.266 417.109 292.864 414.864Z" fill="#EBEBEB"/>
<path d="M293.718 423.278C291.347 426.143 288.832 428.877 286.184 431.467C283.669 434.206 281.01 436.798 278.218 439.231C280.585 436.34 283.1 433.583 285.752 430.971C288.267 428.254 290.926 425.686 293.718 423.278Z" fill="#263238"/>
<path d="M294.742 431.502C294.867 431.62 291.146 435.644 286.457 440.494C281.769 445.344 277.854 449.167 277.74 449.049C280.356 445.907 283.125 442.906 286.036 440.057C290.725 435.208 294.617 431.384 294.742 431.502Z" fill="#EBEBEB"/>
<path d="M295.595 439.904C295.709 440.022 291.715 444.329 286.685 449.533C281.655 454.736 277.478 458.831 277.365 458.713C277.251 458.595 281.234 454.288 286.264 449.096C291.294 443.904 295.47 439.786 295.595 439.904Z" fill="#263238"/>
<path d="M296.597 448.164C296.711 448.282 292.443 452.884 287.072 458.418C281.701 463.952 277.251 468.354 277.137 468.236C277.023 468.118 281.28 463.516 286.662 457.982C292.045 452.447 296.472 448.046 296.597 448.164Z" fill="#EBEBEB"/>
<path d="M297.223 456.802C297.337 456.92 292.807 461.793 287.106 467.669C281.405 473.546 276.693 478.23 276.568 478.112C276.443 477.994 280.984 473.121 286.685 467.245C292.386 461.368 297.109 456.66 297.223 456.802Z" fill="#263238"/>
<path d="M298.327 464.92C298.441 465.038 293.661 470.171 287.652 476.378C281.644 482.585 276.659 487.529 276.545 487.411C276.432 487.293 281.211 482.16 287.231 475.941C293.251 469.723 298.213 464.826 298.327 464.92Z" fill="#EBEBEB"/>
<path d="M300.068 472.425C300.182 472.555 294.833 478.266 288.13 485.192C281.427 492.119 275.885 497.653 275.772 497.535C275.658 497.417 280.995 491.694 287.709 484.756C294.423 477.817 299.954 472.307 300.068 472.425Z" fill="#263238"/>
<path d="M280.107 502.42C279.994 502.302 284.511 497.394 290.213 491.458C295.914 485.523 300.614 480.838 300.739 480.933C300.864 481.027 296.324 485.959 290.634 491.895C284.944 497.83 280.221 502.538 280.107 502.42Z" fill="#EBEBEB"/>
<path d="M285.331 507.848C285.217 507.73 288.745 503.671 293.297 498.774C295.937 495.745 298.725 492.858 301.65 490.125C299.144 493.286 296.484 496.315 293.684 499.199C291.045 502.228 288.257 505.115 285.331 507.848Z" fill="#263238"/>
<path d="M288.961 382.001C287.659 383.768 286.204 385.407 284.614 386.898C283.162 388.539 281.565 390.036 279.846 391.371C281.15 389.603 282.605 387.959 284.193 386.462C285.647 384.826 287.243 383.333 288.961 382.001Z" fill="#EBEBEB"/>
<path d="M170.837 469.534C169.175 469.381 168.561 467.044 169.084 465.404C169.608 463.764 170.871 462.442 171.36 460.79C171.667 459.858 171.804 458.737 172.589 458.171C173.018 457.885 173.522 457.745 174.032 457.767C174.541 457.791 175.031 457.977 175.434 458.3C180.066 462.407 183.48 466.407 188.532 470.856C193.403 475.127 198.649 480.614 203.793 484.544C206.684 486.762 210.223 489.051 210.621 492.804C210.719 494.336 210.243 495.849 209.294 497.029C208.345 498.209 206.995 498.964 205.523 499.14C202.587 499.353 200.049 497.193 197.853 495.164C188.688 486.683 179.52 478.207 170.347 469.735" fill="#0A0D39"/>
<path d="M208.777 488.815C208.279 488.507 207.808 488.155 207.366 487.765C206.479 487.057 205.17 486.089 203.531 484.886C201.601 483.497 199.758 481.984 198.012 480.354L191.65 474.36C187.098 470.077 183.093 466.183 180.179 463.339L176.765 459.94C176.346 459.547 175.964 459.113 175.627 458.642C176.112 458.993 176.565 459.388 176.982 459.822L180.544 463.067C183.525 465.829 187.611 469.675 192.117 473.947C194.393 476.095 196.487 478.124 198.433 479.989C200.152 481.629 201.961 483.165 203.85 484.591C205.454 485.841 206.729 486.88 207.582 487.635C208.016 487.988 208.417 488.383 208.777 488.815Z" fill="#263238"/>
<path d="M205.75 491.564C205.231 491.322 204.736 491.031 204.271 490.691C203.349 490.101 201.995 489.204 200.413 488.071C197.181 485.806 192.8 482.537 188.157 478.631C183.514 474.726 179.474 471.056 176.64 468.283C175.218 466.902 174.08 465.758 173.329 464.943C172.909 464.551 172.528 464.116 172.191 463.646C172.655 464.003 173.093 464.398 173.499 464.826L176.913 468.011C179.827 470.702 183.889 474.348 188.521 478.207C193.153 482.065 197.488 485.369 200.652 487.717L204.396 490.491C204.876 490.808 205.329 491.168 205.75 491.564Z" fill="#263238"/>
<g opacity="0.3">
<path d="M185.494 468.141C184.431 469.667 183.213 471.071 181.864 472.33C180.648 473.732 179.29 474.995 177.812 476.095C180.089 473.163 182.664 470.498 185.494 468.141Z" fill="#EBEBEB"/>
</g>
<g opacity="0.3">
<path d="M203.327 484.708C202.165 486.292 200.849 487.747 199.4 489.051C198.085 490.5 196.632 491.809 195.065 492.957C196.223 491.371 197.539 489.915 198.991 488.614C200.304 487.163 201.757 485.853 203.327 484.708Z" fill="#EBEBEB"/>
</g>
<g opacity="0.5">
<path d="M271.219 350.991C270.096 353.357 268.799 355.628 267.339 357.788C266.048 360.058 264.587 362.221 262.969 364.254C264.098 361.892 265.395 359.62 266.85 357.457C268.136 355.183 269.597 353.021 271.219 350.991Z" fill="#EBEBEB"/>
</g>
<g opacity="0.5">
<path d="M304.984 364.691C303.679 362.458 302.537 360.128 301.57 357.717C300.428 355.389 299.465 352.97 298.691 350.484C301.151 355.023 303.259 359.758 304.995 364.644L304.984 364.691Z" fill="#EBEBEB"/>
</g>
<path d="M379.238 472.472C378.927 473.218 378.39 473.839 377.709 474.241C377.027 474.643 376.239 474.805 375.46 474.702C373.799 474.514 372.285 473.522 370.612 473.393C369.668 473.286 368.587 473.392 367.881 472.72C367.574 472.319 367.367 471.844 367.277 471.341C367.188 470.837 367.22 470.317 367.369 469.829C368.427 463.304 371.841 457.463 375.506 452.046C379.17 446.63 383.187 441.426 385.748 435.326C387.182 431.904 388.547 427.821 391.95 426.594C393.377 426.15 394.913 426.295 396.239 426.998C397.565 427.702 398.576 428.91 399.062 430.37C399.916 433.296 398.448 436.341 397.025 439.007L379.238 472.472Z" fill="#0A0D39"/>
<path d="M390.619 432.682C390.488 433.252 390.308 433.808 390.084 434.346C389.708 435.396 389.128 436.907 388.399 438.759C386.931 442.465 384.803 447.55 382.288 453.085C379.773 458.619 377.315 463.551 375.46 467.079C374.55 468.838 373.788 470.254 373.241 471.221C372.985 471.74 372.685 472.234 372.342 472.696C372.532 472.15 372.764 471.621 373.036 471.115L375.096 466.867C376.837 463.327 379.216 458.347 381.731 452.825C384.246 447.303 386.442 442.205 388.001 438.582C388.752 436.836 389.378 435.385 389.856 434.252C390.064 433.705 390.32 433.18 390.619 432.682Z" fill="#263238"/>
<path d="M388.707 426.145C388.466 426.702 388.176 427.236 387.842 427.738L385.372 431.963C383.29 435.503 380.479 440.482 377.543 446.123C374.607 451.763 372.126 456.861 370.362 460.601L368.291 465.05C368.06 465.607 367.786 466.144 367.472 466.655C367.621 466.071 367.823 465.501 368.075 464.955C368.507 463.87 369.156 462.324 369.987 460.424C371.648 456.625 374.083 451.433 377.019 445.828C379.956 440.223 382.846 435.29 384.985 431.774C386.123 430.016 386.977 428.611 387.614 427.656C387.927 427.114 388.294 426.608 388.707 426.145Z" fill="#263238"/>
<g opacity="0.5">
<path d="M383.199 464.094C381.05 463.793 378.964 463.118 377.031 462.1C375.011 461.279 373.134 460.119 371.477 458.666C371.568 458.513 374.038 460.058 377.27 461.545C380.502 463.032 383.244 463.929 383.199 464.094Z" fill="#EBEBEB"/>
</g>
<g opacity="0.5">
<path d="M397.162 439.715C395.077 438.678 393.062 437.494 391.131 436.175C389.094 435.021 387.132 433.728 385.259 432.305C387.423 433.201 389.493 434.324 391.438 435.656C393.475 436.802 395.394 438.162 397.162 439.715Z" fill="#EBEBEB"/>
</g>
<path d="M415.029 64.9236L412.753 69.2306L408.61 71.5788L412.753 73.9388L415.029 78.234L417.293 73.9388L421.447 71.5788L417.293 69.2306L415.029 64.9236Z" fill="#455A64"/>
<path d="M496.35 320.134L494.074 324.429L489.932 326.789L494.074 329.137L496.35 333.433L498.615 329.137L502.768 326.789L498.615 324.429L496.35 320.134Z" fill="#455A64"/>
<path d="M129.789 78.3049L127.513 82.6001L123.371 84.9601L127.513 87.3083L129.789 91.6035L132.054 87.3083L136.207 84.9601L132.054 82.6001L129.789 78.3049Z" fill="#455A64"/>
<path d="M466.478 201.202L465.078 203.845L462.529 205.285L465.078 206.736L466.478 209.379L467.877 206.736L470.415 205.285L467.877 203.845L466.478 201.202Z" fill="#455A64"/>
<path d="M281.45 126.166L280.05 128.821L277.501 130.26L280.05 131.7L281.45 134.355L282.838 131.7L285.388 130.26L282.838 128.821L281.45 126.166Z" fill="#455A64"/>
<path d="M201.984 194.24L200.732 196.588L198.479 197.874L200.732 199.16L201.984 201.509L203.224 199.16L205.477 197.874L203.224 196.588L201.984 194.24Z" fill="#455A64"/>
<path d="M352.086 307.437L350.845 309.797L348.581 311.083L350.845 312.37L352.086 314.718L353.338 312.37L355.591 311.083L353.338 309.797L352.086 307.437Z" fill="#455A64"/>
<path d="M133.795 329.609L132.554 331.958L130.29 333.244L132.554 334.53L133.795 336.878L135.035 334.53L137.3 333.244L135.035 331.958L133.795 329.609Z" fill="#455A64"/>
<path d="M82.425 129.953C82.425 129.953 89.253 126.201 96.9004 131.865C101.612 135.405 111.615 140.786 114.699 137.494L118.489 124.809C113.51 123.722 108.822 121.519 104.753 118.354C98.7098 113.398 86.6698 113.634 86.6698 113.634L82.425 129.953Z" fill="#00EAA1"/>
<g opacity="0.4">
<path d="M103.774 119.959C104.539 120.411 105.202 121.028 105.716 121.769C106.23 122.511 106.584 123.358 106.754 124.254C106.924 125.151 106.905 126.074 106.699 126.962C106.493 127.85 106.104 128.681 105.56 129.399C103.501 131.924 98.7324 131.263 96.3085 129.116C95.7297 128.608 95.2532 127.986 94.9062 127.288C94.5593 126.588 94.3485 125.826 94.2861 125.041C94.2238 124.258 94.3111 123.469 94.5428 122.721C94.7746 121.972 95.1465 121.278 95.6371 120.679C97.6968 118.13 101.02 118.295 103.774 119.959Z" fill="white"/>
</g>
<g opacity="0.5">
<path d="M116.952 125.623L113.459 137.14H113.345C107.871 138.32 100.929 133.364 96.3431 130.06C95.5465 129.493 94.7954 128.962 94.1467 128.526C92.6685 127.606 90.9901 127.088 89.2673 127.02C87.5446 126.951 85.8332 127.336 84.2916 128.136L83.9275 127.983L87.5008 115.487H87.626C90.91 115.03 94.2498 115.285 97.4333 116.238C100.617 117.191 103.574 118.82 106.118 121.021C109.532 124.124 116.656 125.517 116.725 125.528L116.952 125.623ZM113.14 136.774L116.429 125.941C115.154 125.682 109.055 124.289 105.857 121.387C103.375 119.238 100.492 117.645 97.3875 116.706C94.2835 115.768 91.026 115.506 87.8194 115.935L84.4737 127.605C84.8196 127.436 85.1771 127.294 85.5434 127.18C87.0041 126.713 88.5425 126.567 90.061 126.75C91.5793 126.933 93.0443 127.441 94.3629 128.242L96.5707 129.776C101.066 132.974 107.86 137.789 113.14 136.774Z" fill="white"/>
</g>
<path d="M510.348 232.047C510.348 232.047 510.268 245.806 495.94 253.145C487.064 257.688 471.132 269.04 473.488 276.438L488.874 292.545C488.874 292.545 497.033 281.831 509.289 276.261C521.341 270.798 530.604 251.753 530.604 251.753L510.348 232.047Z" fill="#00EAA1"/>
<g opacity="0.4">
<path d="M507.73 273.441C506.465 274.271 505.043 274.808 503.561 275.018C502.077 275.228 500.568 275.105 499.135 274.657C497.702 274.21 496.379 273.449 495.254 272.424C494.13 271.4 493.231 270.138 492.618 268.722C490.603 263.471 495.383 256.579 500.436 254.491C502.86 253.489 505.568 253.524 507.967 254.587C510.367 255.651 512.262 257.658 513.238 260.167C515.264 265.406 512.362 270.468 507.73 273.441Z" fill="white"/>
</g>
<g opacity="0.5">
<path d="M488.93 289.489L474.99 274.787L475.058 274.586C477.766 265.146 490.501 258.219 498.956 253.653C500.401 252.874 501.778 252.131 502.939 251.458C510.712 246.974 511.747 237.145 511.406 236.378L511.941 235.917L527.224 251.529L527.156 251.741C525.191 257.245 522.143 262.263 518.205 266.477C514.267 270.691 509.525 274.007 504.282 276.214C497.021 279.094 489.294 289.076 489.215 289.194L488.93 289.489ZM475.775 274.586L488.885 288.404C490.284 286.634 497.215 278.22 503.997 275.542C509.113 273.387 513.743 270.159 517.598 266.058C521.452 261.958 524.446 257.076 526.393 251.718L512.1 237.18C512.062 237.85 511.979 238.517 511.85 239.174C511.44 241.286 509.574 248.437 503.224 252.154C502.086 252.827 500.686 253.582 499.229 254.361C490.979 258.774 478.54 265.5 475.775 274.586Z" fill="white"/>
</g>
<path d="M517.631 116.36C517.631 116.36 509.198 118.295 502.632 109.929C498.581 104.737 489.374 95.8987 485.141 98.5065L477.493 110.92C482.526 113.598 486.934 117.384 490.41 122.012C495.497 129.092 508.481 132.502 508.481 132.502L517.631 116.36Z" fill="#00EAA1"/>
<g opacity="0.4">
<path d="M491.912 120.608C491.229 119.89 490.701 119.03 490.365 118.085C490.028 117.139 489.891 116.129 489.96 115.124C490.031 114.119 490.307 113.14 490.77 112.255C491.235 111.369 491.876 110.596 492.651 109.988C495.576 107.899 500.481 110.059 502.495 113.079C503.458 114.537 503.824 116.331 503.513 118.067C503.201 119.804 502.237 121.342 500.834 122.342C497.92 124.407 494.404 123.227 491.912 120.608Z" fill="white"/>
</g>
<g opacity="0.5">
<path d="M479.371 110.554L486.37 99.25H486.495C492.686 99.6748 498.74 107.062 502.757 111.947C503.44 112.785 504.1 113.575 504.669 114.307C505.995 115.74 507.649 116.803 509.477 117.397C511.306 117.991 513.248 118.097 515.127 117.705L515.48 117.988L508.128 130.307H507.992C504.339 129.808 500.826 128.525 497.679 126.537C494.533 124.549 491.82 121.904 489.716 118.767C486.905 114.413 479.678 110.767 479.599 110.731L479.371 110.554ZM486.597 99.7456L480.031 110.366C481.317 111.026 487.462 114.378 490.091 118.448C492.141 121.515 494.782 124.108 497.847 126.062C500.912 128.016 504.335 129.289 507.901 129.8L514.729 118.307C514.311 118.379 513.889 118.419 513.466 118.425C511.768 118.489 510.075 118.183 508.498 117.528C506.92 116.874 505.492 115.885 504.305 114.625C503.724 113.953 503.064 113.15 502.37 112.265C498.444 107.475 492.549 100.3 486.597 99.7456Z" fill="white"/>
</g>
<path d="M414.346 125.422C414.346 125.422 403.774 133.682 389.435 126.437C380.558 121.906 362.225 115.711 357.935 122.165L354.999 144.585C354.999 144.585 368.166 144.762 379.887 151.453C391.415 158.026 411.615 154.037 411.615 154.037L414.346 125.422Z" fill="#00EAA1"/>
<g opacity="0.4">
<path d="M381.105 148.491C379.696 147.956 378.416 147.111 377.352 146.016C376.287 144.919 375.462 143.599 374.934 142.143C374.405 140.687 374.186 139.13 374.291 137.579C374.395 136.027 374.822 134.516 375.54 133.151C378.317 128.301 386.51 128.03 391.188 130.909C393.432 132.3 395.051 134.558 395.692 137.186C396.331 139.815 395.94 142.598 394.602 144.928C391.836 149.789 386.192 150.497 381.105 148.491Z" fill="white"/>
</g>
<g opacity="0.5">
<path d="M357.332 142.78L360.086 122.366L360.279 122.283C369.179 118.743 382.197 125.009 390.823 129.151C392.314 129.871 393.714 130.543 394.932 131.086C403.091 134.744 411.25 129.611 411.626 128.868L412.297 129.021L409.68 151.146L409.475 151.217C404.07 152.955 398.375 153.505 392.753 152.832C387.132 152.16 381.707 150.28 376.826 147.311C370.191 143.099 357.856 142.827 357.73 142.827L357.332 142.78ZM360.746 122.885L358.151 142.084C360.37 142.155 371.022 142.721 377.202 146.662C381.965 149.557 387.256 151.399 392.74 152.071C398.224 152.743 403.782 152.232 409.066 150.568L411.512 129.942C410.976 130.324 410.413 130.663 409.828 130.956C407.973 131.9 401.395 134.768 394.681 131.759C393.452 131.204 392.041 130.579 390.55 129.812C382.118 125.788 369.372 119.664 360.746 122.921V122.885Z" fill="white"/>
</g>
<path d="M403.353 278.386C403.353 278.386 392.838 276.026 389.617 263.046C387.626 254.986 381.651 240.012 375.551 240.626L360.655 250.585C365 256.336 368.084 263.001 369.691 270.114C371.864 280.935 384.883 291.743 384.883 291.743L403.353 278.386Z" fill="#00EAA1"/>
<g opacity="0.4">
<path d="M372.126 269.3C371.704 268.118 371.532 266.856 371.623 265.599C371.713 264.342 372.063 263.121 372.65 262.017C373.236 260.913 374.045 259.953 375.02 259.202C375.996 258.452 377.116 257.927 378.305 257.665C382.653 256.886 387.136 261.972 387.887 266.479C388.069 267.553 388.046 268.654 387.817 269.717C387.587 270.782 387.157 271.788 386.551 272.678C385.945 273.569 385.174 274.326 384.284 274.907C383.395 275.487 382.403 275.88 381.367 276.061C376.997 276.84 373.617 273.607 372.126 269.3Z" fill="white"/>
</g>
<g opacity="0.5">
<path d="M363.022 251.151L376.61 242.148L376.758 242.23C383.586 246.042 386.692 257.665 388.775 265.358C389.128 266.692 389.469 267.942 389.788 269.004C391.916 276.155 399.267 278.657 399.916 278.504L400.166 279.011L385.668 288.982L385.52 288.888C381.637 286.352 378.306 283.004 375.741 279.058C373.177 275.112 371.434 270.655 370.624 265.972C369.634 259.517 363.295 251.482 363.227 251.399L363.022 251.151ZM376.678 242.82L363.819 251.34C364.957 252.791 370.214 259.895 371.136 265.925C371.923 270.496 373.616 274.849 376.108 278.708C378.599 282.566 381.835 285.848 385.611 288.345L399.153 279.046C398.646 278.899 398.147 278.717 397.663 278.504C396.126 277.807 390.949 275.117 389.207 269.24C388.889 268.167 388.547 266.881 388.183 265.583C386.146 257.983 383.062 246.62 376.587 242.82H376.678Z" fill="white"/>
</g>
<path d="M303.607 192.635C303.607 192.635 295.243 194.275 289.018 185.815C285.171 180.587 276.352 171.584 272.107 174.015L264.221 186.039C269.099 188.837 273.333 192.702 276.625 197.367C281.427 204.565 294.127 208.27 294.127 208.27L303.607 192.635Z" fill="#00EAA1"/>
<g opacity="0.4">
<path d="M278.139 196.022C277.48 195.295 276.979 194.429 276.67 193.483C276.362 192.538 276.254 191.535 276.352 190.543C276.45 189.55 276.752 188.591 277.239 187.731C277.727 186.871 278.387 186.128 279.174 185.555C282.11 183.596 286.89 185.874 288.79 188.918C289.696 190.381 290.006 192.158 289.648 193.857C289.292 195.557 288.3 197.04 286.89 197.98C283.942 199.951 280.517 198.677 278.139 196.022Z" fill="white"/>
</g>
<g opacity="0.5">
<path d="M266.076 185.72L273.291 174.805H273.427C279.515 175.407 285.262 182.876 289.075 187.785C289.735 188.635 290.349 189.449 290.895 190.145C292.164 191.604 293.77 192.706 295.56 193.348C297.351 193.988 299.27 194.15 301.137 193.815L301.479 194.11L293.877 206.016H293.74C290.156 205.413 286.732 204.041 283.689 201.986C280.644 199.932 278.049 197.242 276.067 194.086C273.427 189.709 266.406 185.885 266.337 185.826L266.076 185.72ZM273.507 175.289L266.679 185.543C267.931 186.251 273.894 189.732 276.363 193.803C278.301 196.885 280.833 199.519 283.8 201.537C286.768 203.556 290.105 204.916 293.604 205.532L300.705 194.405C300.293 194.464 299.879 194.492 299.465 194.488C297.786 194.498 296.125 194.145 294.586 193.45C293.047 192.755 291.666 191.733 290.531 190.452C289.985 189.779 289.393 188.965 288.699 188.092C284.989 183.278 279.368 175.973 273.507 175.289Z" fill="white"/>
</g>
<path d="M93.8051 352.926C93.8051 352.926 85.4408 354.566 79.216 346.106C75.3695 340.878 66.55 331.875 62.3053 334.306L54.4189 346.33C59.298 349.127 63.5309 352.992 66.8231 357.658C71.6255 364.856 84.3256 368.561 84.3256 368.561L93.8051 352.926Z" fill="#00EAA1"/>
<g opacity="0.4">
<path d="M68.3484 356.36C67.6875 355.634 67.1853 354.768 66.876 353.823C66.5667 352.878 66.4575 351.875 66.5558 350.881C66.654 349.888 66.9575 348.928 67.4455 348.068C67.9336 347.207 68.5946 346.466 69.3839 345.893C72.32 343.935 77.0996 346.212 78.9887 349.256C79.8949 350.72 80.2037 352.497 79.8473 354.196C79.491 355.895 78.4985 357.378 77.0882 358.319C74.1522 360.242 70.7154 358.968 68.3484 356.36Z" fill="white"/>
</g>
<g opacity="0.5">
<path d="M56.2737 346.012L63.5 335.12H63.6252C69.7135 335.722 75.4717 343.191 79.2727 348.1C79.9327 348.962 80.5472 349.764 81.1048 350.46C82.373 351.921 83.978 353.023 85.7693 353.665C87.5606 354.307 89.4797 354.467 91.3468 354.13L91.6882 354.425L84.0978 366.331H83.9498C80.3543 365.731 76.92 364.356 73.8682 362.294C70.8164 360.234 68.2148 357.533 66.2312 354.366C63.591 349.988 56.5696 346.165 56.5013 346.106L56.2737 346.012ZM63.7276 335.58L56.8996 345.835C58.1514 346.543 64.1031 350.024 66.5726 354.094C68.5137 357.177 71.0499 359.808 74.0212 361.824C76.9927 363.838 80.3345 365.192 83.836 365.8L90.9258 354.673C90.5148 354.732 90.1003 354.76 89.6854 354.755C88.0164 354.764 86.364 354.412 84.8336 353.72C83.3033 353.03 81.9288 352.015 80.7976 350.743C80.24 350.071 79.6596 349.257 78.9654 348.383C75.1986 343.569 69.5655 336.3 63.7276 335.58Z" fill="white"/>
</g>
<path d="M216.459 241.711C216.459 241.711 213.352 252.213 200.766 254.42C192.971 255.777 178.29 260.627 178.416 266.892L186.609 282.881C192.415 278.931 198.983 276.342 205.853 275.294C216.288 273.984 227.589 261.618 227.589 261.618L216.459 241.711Z" fill="#00EAA1"/>
<g opacity="0.4">
<path d="M205.284 272.757C204.131 273.091 202.921 273.163 201.739 272.968C200.557 272.774 199.429 272.317 198.432 271.629C197.435 270.941 196.593 270.04 195.963 268.983C195.332 267.929 194.929 266.744 194.78 265.512C194.393 261.016 199.583 256.874 203.884 256.485C205.967 256.298 208.034 256.977 209.636 258.371C211.236 259.764 212.237 261.761 212.419 263.919C212.806 268.415 209.483 271.589 205.284 272.757Z" fill="white"/>
</g>
<g opacity="0.5">
<path d="M187.338 280.569L179.929 265.984L180.02 265.842C184.197 259.246 195.474 257.004 202.928 255.517C204.214 255.258 205.42 255.022 206.456 254.786C213.398 253.204 216.379 245.936 216.288 245.263L216.8 245.039L225.04 260.627L224.937 260.78C222.212 264.524 218.765 267.638 214.815 269.924C210.865 272.209 206.498 273.616 201.995 274.055C195.804 274.515 187.679 280.321 187.599 280.38L187.338 280.569ZM180.578 266.019L187.542 279.719C189.01 278.704 196.168 273.913 201.961 273.477C206.352 273.048 210.611 271.682 214.469 269.465C218.328 267.246 221.702 264.226 224.379 260.591L216.687 246.03C216.507 246.536 216.294 247.029 216.049 247.505C215.275 249.015 212.294 254.054 206.581 255.352C205.534 255.588 204.305 255.824 203.031 256.084C195.736 257.547 184.697 259.73 180.578 266.019Z" fill="white"/>
</g>
<path d="M148.213 211.975C148.213 211.975 137.8 220.495 123.325 213.462C114.369 209.108 95.9332 203.267 91.7567 209.792L89.219 232.307C89.219 232.307 102.386 232.236 114.255 238.702C125.885 245.051 146.017 240.685 146.017 240.685L148.213 211.975Z" fill="#00EAA1"/>
<g opacity="0.4">
<path d="M115.382 235.682C113.966 235.171 112.673 234.35 111.591 233.275C110.508 232.202 109.662 230.898 109.108 229.453C108.554 228.01 108.306 226.46 108.382 224.907C108.457 223.355 108.853 221.839 109.544 220.46C112.252 215.551 120.435 215.126 125.157 217.923C126.282 218.588 127.269 219.477 128.064 220.537C128.857 221.598 129.442 222.811 129.782 224.107C130.124 225.401 130.216 226.754 130.053 228.086C129.89 229.418 129.475 230.704 128.833 231.87C126.136 236.767 120.514 237.581 115.382 235.682Z" fill="white"/>
</g>
<g opacity="0.5">
<path d="M91.5635 230.454L93.9533 210.04L94.1354 209.969C102.966 206.252 116.11 212.329 124.861 216.247C126.352 216.943 127.775 217.58 129.004 218.111C137.22 221.651 145.288 216.329 145.653 215.562L146.324 215.716L144.048 237.841L143.843 237.912C138.47 239.754 132.785 240.414 127.152 239.852C121.519 239.289 116.061 237.515 111.126 234.643C104.434 230.548 92.087 230.513 91.9618 230.513L91.5635 230.454ZM94.5906 210.5L92.3146 229.734C94.5223 229.734 105.185 230.135 111.433 233.959C116.252 236.762 121.579 238.502 127.078 239.068C132.578 239.634 138.13 239.016 143.388 237.251L145.471 216.589C144.939 216.978 144.379 217.325 143.798 217.627C141.965 218.619 135.433 221.592 128.662 218.713C127.433 218.194 126.011 217.533 124.509 216.849C115.996 212.955 103.148 207.066 94.5906 210.5Z" fill="white"/>
</g>
<path d="M231.731 67.3428C231.731 67.3428 233.188 79.3788 221.489 87.4972C214.229 92.5358 201.574 104.3 204.419 110.554L219.634 122.791C223.753 116.092 229.229 110.403 235.68 106.118C245.615 99.9108 251.612 82.1518 251.612 82.1518L231.731 67.3428Z" fill="#00EAA1"/>
<g opacity="0.4">
<path d="M234.03 103.84C233.012 104.715 231.826 105.354 230.551 105.712C229.275 106.07 227.94 106.139 226.636 105.915C225.333 105.692 224.09 105.18 222.994 104.414C221.897 103.649 220.973 102.648 220.283 101.48C217.938 97.1259 221.421 90.5297 225.552 88.0989C227.565 86.934 229.942 86.6451 232.161 87.2955C234.38 87.946 236.259 89.4824 237.387 91.568C239.731 95.9222 237.751 100.689 234.03 103.84Z" fill="white"/>
</g>
<g opacity="0.5">
<path d="M219.372 120.124L205.557 108.926V108.737C206.888 100.135 217.244 92.5829 224.106 87.5915C225.244 86.7301 226.382 85.9159 227.35 85.2315C233.643 80.3817 233.461 71.6615 233.04 71.0715L233.449 70.6113L248.551 82.4113V82.6001C247.447 87.6479 245.339 92.4013 242.362 96.5563C239.386 100.711 235.606 104.177 231.264 106.731C225.233 110.106 219.588 119.711 219.532 119.853L219.372 120.124ZM206.217 108.655L219.213 119.18C220.237 117.457 225.358 109.28 230.991 106.118C235.229 103.623 238.922 100.246 241.839 96.1987C244.755 92.151 246.831 87.521 247.936 82.6001L233.836 71.5553C233.884 72.1483 233.884 72.7442 233.836 73.3371C233.722 75.2251 232.914 81.7033 227.736 85.6799C226.792 86.4115 225.665 87.2257 224.482 88.0399C217.756 93.0077 207.628 100.395 206.217 108.655Z" fill="white"/>
</g>
<path d="M491.366 502.291H431.438V515.731H491.366V502.291Z" fill="#00EAA1"/>
<path d="M455.234 502.291L456.224 515.731H464.68L465.123 502.291H455.234Z" fill="#E0E0E0"/>
<path d="M476.833 502.291H416.906V515.731H476.833V502.291Z" fill="#455A64"/>
<path d="M476.64 504.391C476.64 504.568 463.314 504.698 446.87 504.698C430.426 504.698 417.088 504.568 417.088 504.391C417.088 504.214 430.414 504.084 446.87 504.084C463.325 504.084 476.64 504.226 476.64 504.391Z" fill="#00EAA1"/>
<path d="M476.617 507.471C476.617 507.636 463.291 507.778 446.847 507.778C430.403 507.778 417.066 507.636 417.066 507.471C417.066 507.306 430.403 507.164 446.847 507.164C463.291 507.164 476.617 507.306 476.617 507.471Z" fill="#00EAA1"/>
<path d="M476.617 510.551C476.617 510.716 463.291 510.857 446.847 510.857C430.403 510.857 417.066 510.716 417.066 510.551C417.066 510.386 430.403 510.244 446.847 510.244C463.291 510.244 476.617 510.374 476.617 510.551Z" fill="#00EAA1"/>
<path d="M476.617 513.619C476.617 513.796 463.291 513.925 446.847 513.925C430.403 513.925 417.066 513.796 417.066 513.619C417.066 513.442 430.403 513.312 446.847 513.312C463.291 513.312 476.617 513.453 476.617 513.619Z" fill="#00EAA1"/>
<path d="M440.69 502.291L441.68 515.731H450.147L450.58 502.291H440.69Z" fill="#E0E0E0"/>
<path d="M498.638 488.992H438.71V502.432H498.638V488.992Z" fill="#00EAA1"/>
<path d="M462.506 488.992L463.496 502.432H471.951L472.395 488.992H462.506Z" fill="#E0E0E0"/>
<path d="M484.105 488.992H424.178V502.432H484.105V488.992Z" fill="#455A64"/>
<path d="M483.912 491.104C483.912 491.269 470.574 491.411 454.142 491.411C437.709 491.411 424.36 491.269 424.36 491.104C424.36 490.939 437.686 490.797 454.142 490.797C470.597 490.797 483.912 490.88 483.912 491.104Z" fill="#00EAA1"/>
<path d="M483.889 494.172C483.889 494.349 470.563 494.479 454.119 494.479C437.675 494.479 424.337 494.349 424.337 494.172C424.337 493.995 437.675 493.865 454.119 493.865C470.563 493.865 483.889 494.007 483.889 494.172Z" fill="#00EAA1"/>
<path d="M483.889 497.252C483.889 497.417 470.563 497.559 454.119 497.559C437.675 497.559 424.337 497.417 424.337 497.252C424.337 497.087 437.675 496.945 454.119 496.945C470.563 496.945 483.889 497.087 483.889 497.252Z" fill="#00EAA1"/>
<path d="M483.889 500.32C483.889 500.485 470.563 500.627 454.119 500.627C437.675 500.627 424.337 500.485 424.337 500.32C424.337 500.155 437.675 500.013 454.119 500.013C470.563 500.013 483.889 500.155 483.889 500.32Z" fill="#00EAA1"/>
<path d="M447.962 488.992L448.952 502.432H457.408L457.852 488.992H447.962Z" fill="#E0E0E0"/>
<path d="M494.575 529.029H434.648V542.47H494.575V529.029Z" fill="#00EAA1"/>
<path d="M458.432 529.018L459.422 542.47H467.889L468.321 529.018H458.432Z" fill="#E0E0E0"/>
<path d="M480.031 529.018H420.104V542.458H480.031V529.018Z" fill="#455A64"/>
<path d="M479.838 531.13C479.838 531.307 466.512 531.437 450.068 531.437C433.623 531.437 420.286 531.307 420.286 531.13C420.286 530.953 433.623 530.823 450.068 530.823C466.512 530.823 479.838 531 479.838 531.13Z" fill="#00EAA1"/>
<path d="M479.826 534.21C479.826 534.375 466.489 534.516 450.045 534.516C433.601 534.516 420.275 534.375 420.275 534.21C420.275 534.044 433.601 533.903 450.045 533.903C466.489 533.903 479.826 534.033 479.826 534.21Z" fill="#00EAA1"/>
<path d="M479.826 537.278C479.826 537.455 466.489 537.596 450.045 537.596C433.601 537.596 420.275 537.455 420.275 537.278C420.275 537.101 433.601 536.971 450.045 536.971C466.489 536.971 479.826 537.112 479.826 537.278Z" fill="#00EAA1"/>
<path d="M479.826 540.357C479.826 540.534 466.489 540.664 450.045 540.664C433.601 540.664 420.275 540.534 420.275 540.357C420.275 540.18 433.601 540.051 450.045 540.051C466.489 540.051 479.826 540.192 479.826 540.357Z" fill="#00EAA1"/>
<path d="M443.9 529.018L444.89 542.47H453.345L453.777 529.018H443.9Z" fill="#E0E0E0"/>
<path d="M501.847 515.731H441.919V529.171H501.847V515.731Z" fill="#00EAA1"/>
<path d="M465.704 515.731L466.694 529.171H475.161L475.593 515.731H465.704Z" fill="#E0E0E0"/>
<path d="M487.303 515.731H427.376V529.171H487.303V515.731Z" fill="#455A64"/>
<path d="M487.064 517.831C487.064 518.008 473.738 518.15 457.294 518.15C440.85 518.15 427.512 518.008 427.512 517.831C427.512 517.654 440.85 517.524 457.294 517.524C473.738 517.524 487.064 517.666 487.064 517.831Z" fill="#00EAA1"/>
<path d="M487.064 520.911C487.064 521.088 473.738 521.218 457.294 521.218C440.85 521.218 427.524 521.088 427.524 520.911C427.524 520.734 440.85 520.604 457.294 520.604C473.738 520.604 487.064 520.746 487.064 520.911Z" fill="#00EAA1"/>
<path d="M487.064 523.991C487.064 524.156 473.738 524.298 457.294 524.298C440.85 524.298 427.524 524.156 427.524 523.991C427.524 523.826 440.85 523.684 457.294 523.684C473.738 523.684 487.064 523.814 487.064 523.991Z" fill="#00EAA1"/>
<path d="M487.064 527.059C487.064 527.236 473.738 527.377 457.294 527.377C440.85 527.377 427.524 527.236 427.524 527.059C427.524 526.882 440.85 526.752 457.294 526.752C473.738 526.752 487.064 526.894 487.064 527.059Z" fill="#00EAA1"/>
<path d="M451.16 515.731L452.15 529.171H460.617L461.049 515.731H451.16Z" fill="#E0E0E0"/>
<path d="M454.255 515.589H394.328V529.03H454.255V515.589Z" fill="#00EAA1"/>
<path opacity="0.2" d="M454.255 515.589H394.328V529.03H454.255V515.589Z" fill="black"/>
<path d="M418.124 515.589L419.114 529.03H427.569L428.013 515.589H418.124Z" fill="#E0E0E0"/>
<path d="M447.678 529.029H387.751V542.47H447.678V529.029Z" fill="#00EAA1"/>
<path opacity="0.2" d="M447.678 529.029H387.751V542.47H447.678V529.029Z" fill="black"/>
<path d="M411.546 529.018L412.525 542.47H420.992L421.424 529.018H411.546Z" fill="#E0E0E0"/>
<path d="M433.134 529.029H373.207V542.47H433.134V529.029Z" fill="#00EAA1"/>
<g opacity="0.2">
<path d="M432.952 531.13C432.952 531.307 419.615 531.437 403.171 531.437C386.727 531.437 373.401 531.307 373.401 531.13C373.401 530.953 386.727 530.823 403.171 530.823C419.615 530.823 432.952 531 432.952 531.13Z" fill="black"/>
</g>
<g opacity="0.2">
<path d="M432.929 534.21C432.929 534.375 419.592 534.516 403.159 534.516C386.727 534.516 373.378 534.375 373.378 534.21C373.378 534.044 386.704 533.903 403.159 533.903C419.615 533.903 432.929 534.033 432.929 534.21Z" fill="black"/>
</g>
<g opacity="0.2">
<path d="M432.929 537.278C432.929 537.455 419.592 537.596 403.159 537.596C386.727 537.596 373.378 537.455 373.378 537.278C373.378 537.101 386.704 536.971 403.159 536.971C419.615 536.971 432.929 537.112 432.929 537.278Z" fill="black"/>
</g>
<g opacity="0.2">
<path d="M432.929 540.357C432.929 540.534 419.592 540.664 403.159 540.664C386.727 540.664 373.378 540.534 373.378 540.357C373.378 540.18 386.704 540.051 403.159 540.051C419.615 540.051 432.929 540.192 432.929 540.357Z" fill="black"/>
</g>
<path d="M397.003 529.018L397.993 542.47H406.448L406.892 529.018H397.003Z" fill="#E0E0E0"/>
<path d="M441.783 515.589H381.856V529.03H441.783V515.589Z" fill="#00EAA1"/>
<g opacity="0.2">
<path d="M441.601 517.69C441.601 517.867 428.264 517.996 411.831 517.996C395.398 517.996 382.049 517.867 382.049 517.69C382.049 517.513 395.375 517.383 411.831 517.383C428.286 517.383 441.601 517.524 441.601 517.69Z" fill="black"/>
</g>
<g opacity="0.2">
<path d="M441.544 520.769C441.544 520.935 428.218 521.076 411.774 521.076C395.33 521.076 381.992 520.935 381.992 520.769C381.992 520.604 395.318 520.463 411.774 520.463C428.229 520.463 441.544 520.592 441.544 520.769Z" fill="black"/>
</g>
<g opacity="0.2">
<path d="M441.544 523.849C441.544 524.014 428.218 524.156 411.774 524.156C395.33 524.156 381.992 524.014 381.992 523.849C381.992 523.684 395.318 523.542 411.774 523.542C428.229 523.542 441.544 523.672 441.544 523.849Z" fill="black"/>
</g>
<g opacity="0.2">
<path d="M441.544 526.917C441.544 527.094 428.218 527.224 411.774 527.224C395.33 527.224 381.992 527.094 381.992 526.917C381.992 526.74 395.318 526.61 411.774 526.61C428.229 526.61 441.544 526.752 441.544 526.917Z" fill="black"/>
</g>
<path d="M405.651 515.589L406.641 529.03H415.097L415.541 515.589H405.651Z" fill="#E0E0E0"/>
<path d="M170.541 529.029H110.613V542.47H170.541V529.029Z" fill="#00EAA1"/>
<path d="M134.398 529.018L135.388 542.47H143.854L144.287 529.018H134.398Z" fill="#E0E0E0"/>
<path d="M155.997 529.018H96.0698V542.458H155.997V529.018Z" fill="#455A64"/>
<path d="M155.803 531.13C155.803 531.307 142.477 531.437 126.033 531.437C109.589 531.437 96.2515 531.307 96.2515 531.13C96.2515 530.953 109.589 530.823 126.033 530.823C142.477 530.823 155.803 531 155.803 531.13Z" fill="#00EAA1"/>
<path d="M155.781 534.21C155.781 534.375 142.455 534.516 126.011 534.516C109.566 534.516 96.2405 534.375 96.2405 534.21C96.2405 534.044 109.566 533.903 126.011 533.903C142.455 533.903 155.781 534.033 155.781 534.21Z" fill="#00EAA1"/>
<path d="M155.781 537.278C155.781 537.455 142.455 537.596 126.011 537.596C109.566 537.596 96.2405 537.455 96.2405 537.278C96.2405 537.101 109.566 536.971 126.011 536.971C142.455 536.971 155.781 537.112 155.781 537.278Z" fill="#00EAA1"/>
<path d="M155.781 540.357C155.781 540.534 142.455 540.664 126.011 540.664C109.566 540.664 96.2405 540.534 96.2405 540.357C96.2405 540.18 109.566 540.051 126.011 540.051C142.455 540.051 155.781 540.192 155.781 540.357Z" fill="#00EAA1"/>
<path d="M119.854 529.018L120.844 542.47H129.311L129.743 529.018H119.854Z" fill="#F5F5F5"/>
<path d="M163.246 515.731H103.319V529.171H163.246V515.731Z" fill="#00EAA1"/>
<path d="M127.115 515.731L128.093 529.171H136.56L137.004 515.731H127.115Z" fill="#E0E0E0"/>
<path d="M148.702 515.731H88.7751V529.171H148.702V515.731Z" fill="#455A64"/>
<path d="M148.52 517.831C148.52 518.008 135.183 518.15 118.739 518.15C102.294 518.15 88.9685 518.008 88.9685 517.831C88.9685 517.654 102.294 517.524 118.739 517.524C135.183 517.524 148.52 517.666 148.52 517.831Z" fill="#00EAA1"/>
<path d="M148.498 520.911C148.498 521.088 135.16 521.218 118.716 521.218C102.272 521.218 88.9458 521.088 88.9458 520.911C88.9458 520.734 102.272 520.604 118.716 520.604C135.16 520.604 148.498 520.746 148.498 520.911Z" fill="#00EAA1"/>
<path d="M148.498 523.991C148.498 524.156 135.16 524.298 118.716 524.298C102.272 524.298 88.9458 524.156 88.9458 523.991C88.9458 523.826 102.272 523.684 118.716 523.684C135.16 523.684 148.498 523.814 148.498 523.991Z" fill="#00EAA1"/>
<path d="M148.498 527.059C148.498 527.236 135.16 527.377 118.716 527.377C102.272 527.377 88.9458 527.236 88.9458 527.059C88.9458 526.882 102.272 526.752 118.716 526.752C135.16 526.752 148.498 526.894 148.498 527.059Z" fill="#00EAA1"/>
<path d="M112.571 515.731L113.561 529.171H122.016L122.46 515.731H112.571Z" fill="#F5F5F5"/>
</svg>
