<svg width="897" height="469" viewBox="0 0 897 469" fill="none" xmlns="http://www.w3.org/2000/svg">
<g filter="url(#filter0_d_82_117)">
<path d="M5.99992 421L36.3676 404.129C37.1104 403.717 37.9461 403.5 38.7958 403.5L52.5236 403.5C54.6136 403.5 56.483 404.8 57.2107 406.759L61.2897 417.741C62.0174 419.7 63.8869 421 65.9768 421L82.5002 421L95.7847 421C96.8966 421 97.9767 420.629 98.8544 419.947L118.646 404.553C119.524 403.871 120.604 403.5 121.716 403.5L143.012 403.5C143.337 403.5 143.661 403.468 143.98 403.405L178.156 396.66C180.173 396.262 181.741 394.669 182.107 392.646L187.672 361.926C187.723 361.642 187.799 361.364 187.898 361.094L213.607 291.069C213.866 290.365 214.279 289.729 214.817 289.206L246.872 258.067C248.184 256.792 250.087 256.336 251.834 256.876L296.539 270.703C297.173 270.899 297.84 270.967 298.501 270.902L446.271 256.509C449.116 256.232 451.15 253.631 450.733 250.803L442.5 195L435.153 55.4171C435.059 53.6149 435.942 51.9013 437.466 50.9337L486.088 20.0504C488.295 18.6488 491.209 19.1837 492.774 21.2777L538.495 82.4513C541.374 86.3035 547.5 84.2673 547.5 79.458L547.5 7.99984C547.5 5.23841 549.738 2.99983 552.5 2.99983L569.385 2.99984C569.793 2.99984 570.201 3.04998 570.597 3.14914L586.998 7.24951C587.659 7.41468 588.346 7.44315 589.019 7.33318L609.692 3.95015C612.736 3.45216 615.5 5.80079 615.5 8.88452L615.5 24.4998L615.5 65.2293C615.5 65.7401 615.422 66.2479 615.268 66.735L607.476 91.41C606.882 93.2898 607.448 95.343 608.922 96.6526L613.355 100.593C614.683 101.774 616.539 102.161 618.228 101.609L635.186 96.0718C637.835 95.2069 640.68 96.6739 641.511 99.3334L646.081 113.959C646.876 116.503 649.526 117.976 652.106 117.309L675.14 111.352C676.03 111.122 676.838 110.651 677.478 109.992L691.842 95.1782C692.277 94.73 692.624 94.2042 692.865 93.6282L698.159 80.9808C699.645 77.432 704.414 76.8203 706.747 79.8792L723.53 101.884C723.842 102.292 724.088 102.746 724.262 103.23L777.356 251.411C778.271 253.964 781.054 255.322 783.629 254.473L825.111 240.788C826.614 240.292 828.263 240.538 829.557 241.449L869.627 269.68C870.816 270.518 871.582 271.832 871.723 273.28L890 460" stroke="#F43E3E" stroke-width="5"/>
</g>
<defs>
<filter id="filter0_d_82_117" x="0.785812" y="0.5" width="895.702" height="467.744" filterUnits="userSpaceOnUse" color-interpolation-filters="sRGB">
<feFlood flood-opacity="0" result="BackgroundImageFix"/>
<feColorMatrix in="SourceAlpha" type="matrix" values="0 0 0 0 0 0 0 0 0 0 0 0 0 0 0 0 0 0 127 0" result="hardAlpha"/>
<feOffset dy="4"/>
<feGaussianBlur stdDeviation="2"/>
<feComposite in2="hardAlpha" operator="out"/>
<feColorMatrix type="matrix" values="0 0 0 0 0 0 0 0 0 0 0 0 0 0 0 0 0 0 0.25 0"/>
<feBlend mode="normal" in2="BackgroundImageFix" result="effect1_dropShadow_82_117"/>
<feBlend mode="normal" in="SourceGraphic" in2="effect1_dropShadow_82_117" result="shape"/>
</filter>
</defs>
</svg>
