<svg width="752" height="524" viewBox="0 0 752 524" fill="none" xmlns="http://www.w3.org/2000/svg">
<g filter="url(#filter0_d_82_59)">
<path d="M4.99988 508.566L29.3043 512.633C30.7019 512.867 32.1331 512.497 33.242 511.614L50.3598 497.998C52.1944 496.539 54.7964 496.55 56.6184 498.025L62.5549 502.83C63.487 503.585 64.6593 503.979 65.858 503.942L80.8995 503.469C81.6244 503.446 82.3456 503.581 83.013 503.865L101.073 511.543C103.107 512.408 105.467 511.835 106.877 510.135L122.736 491.023C123.548 490.045 124.702 489.412 125.964 489.255L146.577 486.678C147.507 486.562 148.385 486.187 149.112 485.596L184.065 457.168C184.991 456.414 185.617 455.354 185.83 454.18L191.671 421.926C191.723 421.643 191.799 421.364 191.898 421.094L217.607 351.07C217.866 350.366 218.279 349.729 218.817 349.206L249.058 319.83C251.172 317.776 254.595 317.987 256.441 320.286L299.232 373.588C302.365 377.49 308.653 374.879 308.101 369.905L279.102 108.915C278.448 103.037 286.744 101.094 288.769 106.651L331.04 222.634C332.54 226.75 338.232 227.084 340.203 223.172L365.822 172.316C367.22 169.541 370.782 168.7 373.274 170.555L431.014 213.553C434.312 216.009 439 213.655 439 209.543L439 117.5C439 114.739 441.238 112.5 444 112.5L488.615 112.5C490.4 112.5 492.05 113.452 492.944 114.998L535.098 187.924C537.376 191.865 543.307 190.96 544.305 186.518L551.228 155.71C551.407 154.915 551.388 154.09 551.175 153.304L535.066 93.9551C533.997 90.0154 537.844 86.5238 541.662 87.9694L571.891 99.4153C576.167 101.034 580.193 96.5395 578.116 92.467L561.452 59.807C560.129 57.2136 561.293 54.0426 563.979 52.9207L601.927 37.0745C603.526 36.4067 605.357 36.6147 606.766 37.6243L659.325 75.2914C661.191 76.6283 661.907 79.0635 661.061 81.1972L645.445 120.614C644.852 122.112 643.573 123.232 642.009 123.623L608.287 132.053C606.061 132.61 604.5 134.61 604.5 136.904L604.5 173.5C604.5 176.262 606.738 178.5 609.5 178.5L632.5 178.5L644.5 178.5L661.916 178.5C662.304 178.5 662.691 178.455 663.068 178.365L678.684 174.667C680.426 174.254 681.814 172.942 682.324 171.226L692.353 137.493C692.451 137.165 692.514 136.828 692.543 136.488L695.893 96.7079C696.166 93.4685 699.813 91.7091 702.518 93.5124L704.389 94.7595C706.939 96.4596 710.254 94.1622 709.558 91.1774V91.1774C708.921 88.4471 711.692 86.172 714.246 87.3286L728.255 93.6721C731.342 95.0702 734.896 93.0564 735.284 89.6895L745.5 1.00024" stroke="#3EF471" stroke-width="5"/>
</g>
<defs>
<filter id="filter0_d_82_59" x="0.587326" y="0.714355" width="751.396" height="522.487" filterUnits="userSpaceOnUse" color-interpolation-filters="sRGB">
<feFlood flood-opacity="0" result="BackgroundImageFix"/>
<feColorMatrix in="SourceAlpha" type="matrix" values="0 0 0 0 0 0 0 0 0 0 0 0 0 0 0 0 0 0 127 0" result="hardAlpha"/>
<feOffset dy="4"/>
<feGaussianBlur stdDeviation="2"/>
<feComposite in2="hardAlpha" operator="out"/>
<feColorMatrix type="matrix" values="0 0 0 0 0 0 0 0 0 0 0 0 0 0 0 0 0 0 0.25 0"/>
<feBlend mode="normal" in2="BackgroundImageFix" result="effect1_dropShadow_82_59"/>
<feBlend mode="normal" in="SourceGraphic" in2="effect1_dropShadow_82_59" result="shape"/>
</filter>
</defs>
</svg>
