<svg width="789" height="480" viewBox="0 0 789 480" fill="none" xmlns="http://www.w3.org/2000/svg">
<g filter="url(#filter0_d_82_30)">
<path d="M5.00006 464.566L29.3045 468.633C30.7021 468.867 32.1332 468.496 33.2422 467.614L50.36 453.998C52.1946 452.538 54.7966 452.55 56.6186 454.025L62.5551 458.83C63.4872 459.585 64.6595 459.979 65.8582 459.942L80.8997 459.469C81.6246 459.446 82.3457 459.581 83.0132 459.865L101.074 467.543C103.107 468.408 105.467 467.835 106.878 466.135L122.736 447.023C123.548 446.045 124.702 445.412 125.964 445.255L146.577 442.678C147.507 442.562 148.385 442.187 149.112 441.595L184.065 413.167C184.991 412.414 185.617 411.354 185.83 410.18L191.672 377.926C191.723 377.643 191.799 377.364 191.898 377.094L217.607 307.069C217.866 306.365 218.279 305.729 218.817 305.206L250.872 274.067C252.184 272.793 254.087 272.336 255.834 272.876L297.187 285.666C299.637 286.424 302.263 285.206 303.266 282.846L335.85 206.205C336.56 204.535 338.119 203.381 339.923 203.19L393.5 197.5L446.138 197.5C447.339 197.5 448.5 197.932 449.408 198.718L542.328 279.068C545.703 281.987 550.921 279.358 550.584 274.909L541.586 156.129C541.529 155.386 541.307 154.664 540.936 154.018L514.799 108.489C512.886 105.156 515.292 101 519.136 101L545.704 101C548.757 101 551.098 98.287 550.65 95.2665L541.992 36.8854C541.694 34.8777 542.64 32.8891 544.385 31.8528L591.886 3.64596C593.975 2.40535 596.654 2.84631 598.235 4.69115L609.988 18.4026C610.327 18.7984 610.603 19.2449 610.804 19.7258L618.31 37.656C619.039 39.3996 618.724 41.4056 617.494 42.8407L597.545 66.1138C596.295 67.5725 595.991 69.6185 596.763 71.3777L604.078 88.0393C604.356 88.6728 604.5 89.3573 604.5 90.0492L604.5 121.712C604.5 126.263 610.087 128.448 613.174 125.103L619.176 118.6C621.023 116.6 624.13 116.445 626.167 118.25L641.674 131.995C643.346 133.477 645.799 133.67 647.682 132.467L660.408 124.336C661.726 123.494 663.362 123.317 664.829 123.858L676.498 128.157C679.207 129.155 682.196 127.658 683.019 124.89L692.353 93.4928C692.451 93.1651 692.514 92.8282 692.543 92.4875L695.893 52.7077C696.166 49.4683 699.814 47.709 702.518 49.5122L704.389 50.7593C706.939 52.4594 710.254 50.162 709.558 47.1773V47.1773C708.921 44.4469 711.692 42.1718 714.246 43.3284L732.37 51.5353C733.72 52.1466 734.729 53.3253 735.125 54.7533L782.5 225.5" stroke="#3EF471" stroke-width="5"/>
</g>
<defs>
<filter id="filter0_d_82_30" x="0.587502" y="0.444824" width="788.321" height="478.756" filterUnits="userSpaceOnUse" color-interpolation-filters="sRGB">
<feFlood flood-opacity="0" result="BackgroundImageFix"/>
<feColorMatrix in="SourceAlpha" type="matrix" values="0 0 0 0 0 0 0 0 0 0 0 0 0 0 0 0 0 0 127 0" result="hardAlpha"/>
<feOffset dy="4"/>
<feGaussianBlur stdDeviation="2"/>
<feComposite in2="hardAlpha" operator="out"/>
<feColorMatrix type="matrix" values="0 0 0 0 0 0 0 0 0 0 0 0 0 0 0 0 0 0 0.25 0"/>
<feBlend mode="normal" in2="BackgroundImageFix" result="effect1_dropShadow_82_30"/>
<feBlend mode="normal" in="SourceGraphic" in2="effect1_dropShadow_82_30" result="shape"/>
</filter>
</defs>
</svg>
