<svg width="764" height="546" viewBox="0 0 764 546" fill="none" xmlns="http://www.w3.org/2000/svg">
<g filter="url(#filter0_d_82_88)">
<path d="M5.00001 530.566L29.3044 534.633C30.702 534.866 32.1332 534.496 33.2422 533.614L50.36 519.998C52.1945 518.538 54.7966 518.55 56.6186 520.025L62.555 524.83C63.4872 525.585 64.6595 525.979 65.8582 525.942L80.8996 525.468C81.6245 525.446 82.3457 525.581 83.0131 525.865L101.073 533.543C103.107 534.408 105.467 533.835 106.878 532.135L122.736 513.023C123.548 512.045 124.702 511.412 125.964 511.254L146.577 508.678C147.507 508.562 148.385 508.187 149.112 507.595L184.065 479.167C184.991 478.414 185.617 477.354 185.83 476.179L191.672 443.926C191.723 443.642 191.799 443.364 191.898 443.094L217.607 373.069C217.866 372.365 218.279 371.729 218.817 371.206L250.872 340.067C252.184 338.793 254.087 338.336 255.834 338.876L294.302 350.774C297.719 351.831 301.109 349.062 300.755 345.503L279.87 135.287C279.407 130.628 285.028 127.945 288.359 131.235L357.434 199.447C358.13 200.134 358.609 201.01 358.812 201.966L384.083 321.038C384.351 322.297 385.093 323.405 386.157 324.13L453.397 369.996C456.448 372.077 460.625 370.246 461.161 366.592L508.779 42.3383C509.577 36.9056 517.278 36.5433 518.583 41.8772L544.977 149.824C546.298 155.227 554.13 154.759 554.798 149.237L558.842 115.806C558.946 114.95 559.269 114.135 559.78 113.441L569.232 100.609C569.735 99.9249 570.405 99.3807 571.177 99.0274L591.566 89.6987C591.855 89.5665 592.155 89.4622 592.464 89.3871L609.918 85.1416C610.304 85.0475 610.701 84.9999 611.099 84.9999L621.994 84.9999C622.33 84.9999 622.666 85.0339 622.996 85.1014L640.502 88.6822C642.829 89.1582 644.5 91.2056 644.5 93.5808L644.5 159L642.52 193.683C642.436 195.152 643.003 196.584 644.071 197.596L672.053 224.128C672.982 225.009 674.213 225.5 675.493 225.5L675.789 225.5C678.813 225.5 681.145 222.837 680.745 219.839L673.5 165.5L673.5 132.608C673.5 132.204 673.549 131.802 673.645 131.41L681.354 100.156C681.451 99.7642 681.5 99.3621 681.5 98.9586L681.5 78.511C681.5 74.2997 686.387 71.9748 689.655 74.6318L723 101.75L743.257 121.029C743.585 121.341 743.869 121.697 744.101 122.086L748.208 128.956C750.812 133.312 757.5 131.466 757.5 126.39L757.5 0.500004" stroke="#3EF471" stroke-width="5"/>
</g>
<defs>
<filter id="filter0_d_82_88" x="0.587448" y="0.5" width="763.412" height="544.701" filterUnits="userSpaceOnUse" color-interpolation-filters="sRGB">
<feFlood flood-opacity="0" result="BackgroundImageFix"/>
<feColorMatrix in="SourceAlpha" type="matrix" values="0 0 0 0 0 0 0 0 0 0 0 0 0 0 0 0 0 0 127 0" result="hardAlpha"/>
<feOffset dy="4"/>
<feGaussianBlur stdDeviation="2"/>
<feComposite in2="hardAlpha" operator="out"/>
<feColorMatrix type="matrix" values="0 0 0 0 0 0 0 0 0 0 0 0 0 0 0 0 0 0 0.25 0"/>
<feBlend mode="normal" in2="BackgroundImageFix" result="effect1_dropShadow_82_88"/>
<feBlend mode="normal" in="SourceGraphic" in2="effect1_dropShadow_82_88" result="shape"/>
</filter>
</defs>
</svg>
