<svg width="750" height="463" viewBox="0 0 750 463" fill="none" xmlns="http://www.w3.org/2000/svg">
<g filter="url(#filter0_d_65_25)">
<path d="M5.00001 447.566L29.3044 451.633C30.702 451.866 32.1332 451.496 33.2422 450.614L50.36 436.998C52.1945 435.538 54.7966 435.549 56.6186 437.024L62.555 441.83C63.4872 442.585 64.6595 442.979 65.8582 442.941L80.8996 442.468C81.6245 442.446 82.3457 442.581 83.0131 442.865L101.074 450.543C103.107 451.408 105.467 450.835 106.878 449.135L122.736 430.023C123.548 429.044 124.702 428.412 125.964 428.254L146.577 425.678C147.507 425.561 148.385 425.186 149.112 424.595L184.065 396.167C184.991 395.414 185.617 394.354 185.83 393.179L191.672 360.926C191.723 360.642 191.799 360.364 191.898 360.094L217.607 290.069C217.866 289.365 218.279 288.729 218.817 288.206L250.872 257.067C252.184 255.792 254.087 255.336 255.834 255.876L297.187 268.666C299.637 269.424 302.263 268.205 303.266 265.846L335.85 189.205C336.56 187.535 338.119 186.381 339.923 186.189L390.362 180.833C392.279 180.63 393.908 179.342 394.55 177.524L436.592 58.3266C437.756 55.0281 441.859 53.9128 444.532 56.1685L535.203 132.686C538.071 135.106 542.484 133.622 543.306 129.961L551.5 93.4999L558.176 38.3075C558.584 34.9424 562.15 32.949 565.23 34.3656L578.356 40.4038C581.256 41.7377 584.647 40.0498 585.33 36.9318L591.331 9.54977C591.741 7.6835 593.177 6.21348 595.034 5.76191L606.354 3.00839C608.742 2.42743 611.199 3.66863 612.148 5.93602L618.31 20.6559C619.039 22.3994 618.724 24.4055 617.494 25.8405L597.545 49.1136C596.295 50.5723 595.991 52.6184 596.763 54.3775L604.078 71.0391C604.356 71.6727 604.5 72.3571 604.5 73.0491L604.5 104.712C604.5 109.263 610.087 111.447 613.174 108.103L619.176 101.6C621.023 99.6002 624.13 99.4444 626.167 101.25L641.674 114.995C643.346 116.477 645.799 116.67 647.682 115.467L660.408 107.336C661.726 106.494 663.362 106.317 664.829 106.858L676.498 111.157C679.207 112.155 682.196 110.658 683.019 107.89L692.353 76.4926C692.451 76.1649 692.514 75.8281 692.543 75.4874L695.893 35.7075C696.166 32.4681 699.813 30.7088 702.518 32.5121L704.389 33.7592C706.939 35.4593 710.254 33.1618 709.558 30.1771V30.1771C708.921 27.4468 711.692 25.1717 714.246 26.3282L730.077 33.4968C732.54 34.6124 735.444 33.5669 736.632 31.1371L743.751 16.566" stroke="#3EF471" stroke-width="5"/>
</g>
<defs>
<filter id="filter0_d_65_25" x="0.587448" y="0.365723" width="749.41" height="461.835" filterUnits="userSpaceOnUse" color-interpolation-filters="sRGB">
<feFlood flood-opacity="0" result="BackgroundImageFix"/>
<feColorMatrix in="SourceAlpha" type="matrix" values="0 0 0 0 0 0 0 0 0 0 0 0 0 0 0 0 0 0 127 0" result="hardAlpha"/>
<feOffset dy="4"/>
<feGaussianBlur stdDeviation="2"/>
<feComposite in2="hardAlpha" operator="out"/>
<feColorMatrix type="matrix" values="0 0 0 0 0 0 0 0 0 0 0 0 0 0 0 0 0 0 0.25 0"/>
<feBlend mode="normal" in2="BackgroundImageFix" result="effect1_dropShadow_65_25"/>
<feBlend mode="normal" in="SourceGraphic" in2="effect1_dropShadow_65_25" result="shape"/>
</filter>
</defs>
</svg>
